<svg xmlns="http://www.w3.org/2000/svg" xmlns:xlink="http://www.w3.org/1999/xlink" viewBox="0 0 1001 1001"><defs><style>.cls-1{fill:#b93c3a;}.cls-2{fill:#fff;stroke:#231f20;stroke-miterlimit:10;}.cls-3{isolation:isolate;}.cls-4{clip-path:url(#clip-path);}</style><clipPath id="clip-path" transform="translate(0.5 0.5)"><path class="cls-1" d="M151.59,749.91l-77.47-45a2.55,2.55,0,0,1-.82-.79l77.48,45A2.52,2.52,0,0,0,151.59,749.91Z"/></clipPath></defs><g id="Layer_2" data-name="Layer 2"><rect class="cls-2" x="0.5" y="0.5" width="1000" height="1000"/></g><g id="Layer_1" data-name="Layer 1"><path class="cls-1" d="M284.09,790.2l-.06,0-77.43-45a3.63,3.63,0,0,1-.73-.56l-.24-.12-.69-1.21a3.73,3.73,0,0,1-.2-.59l1.43-.72-1.54.37a6.69,6.69,0,0,1-.17-1.53,19.21,19.21,0,0,1,1.62-6.73l8.6-22.2c.21-.5.36-.86.51-1.19l.22-.47c.1-.18.2-.34.27-.5l.78-1.32h0c.1-.17.2-.32.3-.46v0l0,0,.27-.36h0s0-.06.09-.11a7.84,7.84,0,0,1,.66-.72l.4-.3a5,5,0,0,1,.6-.51,8.73,8.73,0,0,1,5.37-1c7.16.4,15.47-1.5,24.63-5.7l.74-.34L275,713.65c-.3-.46-.59-.94-.89-1.42l-.47-.9c-.38-.73-.7-1.38-1-2.1-.13-.25-.28-.58-.43-.91-.38-.92-.67-1.62-.92-2.35-.19-.51-.29-.77-.36-1-.34-1-.67-2.11-1-3.23l-.06-.31c-.27-1.11-.51-2.27-.73-3.43l-.19-1.16c-.16-.86-.29-1.79-.39-2.71-.06-.42-.13-.93-.17-1.41-.09-.88-.18-1.85-.25-2.81,0-.47-.06-.9-.06-1.37v-.84l.7-.59a8.22,8.22,0,0,0,.65-.52l.3-.24c.48-.36.86-.65,1.24-1,1-.84,2-1.7,2.9-2.57a5.36,5.36,0,0,0,.52-.46c1.17-1.07,2.22-2.15,3.27-3.23.31-.35.59-.66.9-1l3.09-3.59c.62-.78,1.24-1.58,1.86-2.41.22-.28.38-.51.54-.73l.24-.33c.87-1.18,1.67-2.38,2.44-3.58.47-.78,1-1.61,1.43-2.44l.78-1.4,31.29,18.17c4.87,2.83,12.54,1.27,22.77-4.64.95-.55,1.88-1.13,2.76-1.72l.82-.55c.29-.2.63-.45,1-.71l1.1-.79c.12-.11.36-.29.61-.47.79-.64,1.65-1.35,2.49-2.09a5.68,5.68,0,0,1,.54-.51l.6-.57c.44-.41.88-.82,1.31-1.25a3.61,3.61,0,0,1,.35-.36l.28-.3c.72-.75,1.39-1.49,2-2.23l.84-1c.46-.54.92-1.08,1.36-1.66l.22-.33,1.4-1.88,19.89,11.56-.13,1c-2,15.86-6.57,29.6-13.59,40.81-.81,1.26-1.68,2.51-2.54,3.73l-1,1.39c-.28.38-.55.75-.86,1.14L362,721l-.4.49c-.38.46-.71.85-1,1.24l-3.22,3.56c-1,1.09-2.15,2.21-3.28,3.27a5.9,5.9,0,0,1-.64.57c-.94.86-1.94,1.76-3,2.63l-1.26,1c-.79.67-1.7,1.35-2.61,2-.44.35-.94.72-1.45,1.06-.88.64-1.84,1.31-2.81,2l-1.31.87c-1.4.92-2.88,1.82-4.38,2.69-13.24,7.66-25.09,11.26-35.19,10.66a5.82,5.82,0,0,0-3.47.53h0a2.6,2.6,0,0,0-.25.21l-.29.26a3.73,3.73,0,0,0-.32.36l-.62.91a2.74,2.74,0,0,0-.24.39c-.23.45-.37.71-.5.94l-.3.66c-.13.28-.26.57-.4.86l-8.51,22.08a16.14,16.14,0,0,0-1.41,5.58,3.35,3.35,0,0,0,.07.73l.12.36-.19.2.35.21,0,0v0l.19.12Zm-76-47.86,73.9,43a20.05,20.05,0,0,1,1.61-6.2l8.56-22.2c.18-.38.29-.63.39-.86l.37-.8a4.27,4.27,0,0,0,.27-.51l.17-.33c.14-.25.26-.46.38-.65l.27-.42a3.58,3.58,0,0,1,.29-.43l.22-.3a1,1,0,0,0-.1.18,6.83,6.83,0,0,1,.9-1.09l.32-.28a5,5,0,0,1,.68-.51,8.69,8.69,0,0,1,5.36-1c9.43.55,20.66-2.91,33.35-10.25,1.46-.84,2.88-1.71,4.24-2.6l1.31-.86c.9-.61,1.83-1.26,2.73-1.91.49-.32.93-.65,1.34-1,.88-.66,1.74-1.31,2.54-2,.45-.35.87-.68,1.23-1,1-.85,2-1.71,2.95-2.58a6.22,6.22,0,0,0,.51-.45c1.11-1.05,2.19-2.13,3.21-3.21l3.06-3.36c.26-.35.62-.78,1-1.21l.43-.53.4-.5c.31-.39.56-.73.81-1.07l1-1.37c.83-1.16,1.66-2.37,2.44-3.58,6.61-10.56,11-23.51,13-38.48l-15.63-9.1c-.52.67-1,1.22-1.44,1.76l-1,1.09c-.6.7-1.32,1.47-2,2.21-.09.11-.23.25-.37.39l-.28.29c-.53.53-1,1-1.46,1.4l-.65.62c-.23.2-.36.33-.48.45-.94.83-1.84,1.57-2.7,2.28-.29.21-.46.33-.64.48l-1.16.84-1.1.8-.82.55c-.94.62-1.92,1.24-2.92,1.82-11.45,6.61-19.93,8.12-25.94,4.63L290.08,668l-.72,1.18c-.82,1.28-1.65,2.54-2.56,3.77l-.21.29c-.2.28-.4.57-.62.84-.6.81-1.24,1.65-1.92,2.48l-3.23,3.74c-.34.35-.58.62-.82.89-1.2,1.24-2.3,2.36-3.45,3.42-.17.17-.38.35-.6.53-.93.87-1.95,1.77-3,2.63-.44.38-.89.72-1.36,1.06l-.18.15-.21.18,0,.45c.07,1,.16,1.92.25,2.82,0,.45.1.89.15,1.29.1.9.22,1.74.37,2.56l.2,1.16c.2,1.13.45,2.3.73,3.4l0,.22c.29,1,.58,2,.9,2.94.07.24.15.44.23.65l.11.31c.23.67.5,1.32.76,2l.45,1c.33.72.63,1.32,1,2l.43.82c.49.8,1,1.62,1.55,2.42a23.21,23.21,0,0,0,7.23,6.75L284,722.54,249.37,702.4c-9.35,4.18-17.92,6.08-25.46,5.64a5.67,5.67,0,0,0-3.47.53l-.23.21L220,709l0,0v1l-.78,0-.5.83a6.64,6.64,0,0,1-.39.76l-.17.37c-.14.3-.28.63-.41,1L209,735.23a16.27,16.27,0,0,0-1.41,5.58,3.29,3.29,0,0,0,.07.73Z" transform="translate(0.5 0.5)"/><path class="cls-1" d="M284,722.54l-77.45-45a25.66,25.66,0,0,1-8.25-7.67c-.6-.86-1.16-1.75-1.69-2.67l-1.34-2.56a2.75,2.75,0,0,0-.15-.36c-.18-.37-.36-.77-.51-1.17s-.41-1-.63-1.54l-.21-.54,2.94-1.15.21.56c.19.5.38,1,.6,1.48s.29.69.42,1,.19.41.27.62l1.15,2.15c.47.83,1,1.64,1.52,2.42a22.57,22.57,0,0,0,7.24,6.74L275,713.65c-.3-.46-.59-.94-.89-1.42l-.47-.9c-.38-.73-.7-1.38-1-2.1-.13-.25-.28-.58-.43-.91-.38-.92-.67-1.62-.92-2.35-.19-.51-.29-.77-.36-1-.34-1-.67-2.11-1-3.23l-.06-.31c-.27-1.11-.51-2.27-.73-3.43l-.19-1.16c-.16-.86-.29-1.79-.39-2.71-.06-.42-.13-.93-.17-1.41-.09-.88-.18-1.85-.25-2.81,0-.47-.06-.9-.06-1.37-.1-1.37-.13-2.76-.13-4.22a142.08,142.08,0,0,1,2.77-28.83l.44-2.15,49.07,28.52c4.87,2.83,12.54,1.27,22.77-4.64.95-.55,1.88-1.13,2.76-1.72l.82-.55c.29-.2.63-.45,1-.71l1.1-.79c.12-.11.36-.29.61-.47.79-.64,1.65-1.35,2.49-2.09a5.68,5.68,0,0,1,.54-.51l.6-.57c.44-.41.88-.82,1.31-1.25a3.61,3.61,0,0,1,.35-.36l.28-.3c.72-.75,1.39-1.49,2-2.23l.84-1c.46-.54.92-1.08,1.36-1.66l.22-.33.56-.76c.41-.5.75-1,1.09-1.47l.86-1.22c.8-1.16,1.56-2.39,2.3-3.65a61.31,61.31,0,0,0,8.48-32c0-1.09,0-2.11-.06-3.14,0-.28,0-.53,0-.76-.05-1-.08-1.66-.13-2.3l-.12-1.63c-.05-.62-.11-1.23-.19-1.81,0-.4,0-.53,0-.67l-.31-1.93c-.07-.45-.11-.61-.12-.78l-.36-1.75,1.45-.83-1.53.4-.56-2.13,1.37-.9-1.47.56c-.13-.41-.23-.69-.32-1l-.23-.69a1.36,1.36,0,0,1-.13-.31l-.4-1-.51-1.08c-.19-.39-.39-.74-.6-1.1a5.31,5.31,0,0,1-.31-.51l-.54-.75,1.09-1.17-1.38.8-.61-.72a3.06,3.06,0,0,1-.39-.44l-.86-.71a9.37,9.37,0,0,0-1.18-.82l-38.92-22.61,2.77-1.94c.6-.43,1.19-.85,1.8-1.26l5.29-3.53,2.76-1.73c.26-.18.6-.39.94-.59l.32-.2c1.34-.82,2.71-1.65,4.11-2.45,15.51-8.95,29.07-12.86,40.55-11.75l-65.64-38.14c-12.67-7.1-29.77-4.55-50.82,7.6l-1.58-2.73c22.08-12.74,40.23-15.3,54-7.61l77.5,45-1.56,2.74c-12.68-7.11-29.79-4.56-50.84,7.58q-2.07,1.19-4,2.4l-.36.22c-.28.17-.57.34-.84.53-1,.6-1.88,1.17-2.75,1.73l-5.23,3.48-.52.36,34.64,20.13a11.64,11.64,0,0,1,1.6,1.1,15.31,15.31,0,0,1,1.25,1.1l1.07,1.23a5.39,5.39,0,0,1,.48.64l.78,1.15c.22.35.39.65.55.93H372l0,1.29a16.46,16.46,0,0,1,.66,1.51l.46,1.26c.1.31.21.62.3.94l1.69,8.18a6.27,6.27,0,0,1,.05.65c.07.42.13,1.08.19,1.76l.12,1.77c.06.56.09,1.3.12,2,0,.41,0,.79,0,1.12,0,1,.06,2.07.06,3.18a64.39,64.39,0,0,1-8.91,33.58c-.78,1.32-1.58,2.61-2.42,3.83l-.81,1.15c-.46.65-.84,1.19-1.26,1.7l-.52.71c.07-.08-.06.11-.16.25-.55.73-1,1.31-1.53,1.88l-1,1.09c-.6.7-1.32,1.47-2,2.21-.09.11-.23.25-.37.39l-.28.29c-.53.53-1,1-1.46,1.4l-.65.62c-.23.2-.36.33-.48.45-.94.83-1.84,1.57-2.7,2.28-.29.21-.46.33-.64.48l-1.16.84-1.1.8-.82.55c-.94.62-1.92,1.24-2.92,1.82-11.45,6.61-19.93,8.12-25.94,4.63l-45.25-26.3a139.49,139.49,0,0,0-2.29,26c0,1.38,0,2.7.12,4,0,.62,0,1,.06,1.32.07,1,.16,1.92.25,2.82,0,.45.1.89.15,1.29.1.9.22,1.74.37,2.56l.2,1.16c.2,1.13.45,2.3.73,3.4l0,.22c.29,1,.58,2,.9,2.94.07.24.15.44.23.65l.11.31c.23.67.5,1.32.76,2l.45,1c.33.72.63,1.32,1,2l.43.82c.49.8,1,1.62,1.55,2.42a23.21,23.21,0,0,0,7.23,6.75Z" transform="translate(0.5 0.5)"/><path class="cls-1" d="M193.59,637.6l-3.15,0c.22-25.56,6.79-48.69,19.53-68.73,1-1.68,2.16-3.31,3.27-4.93l.25-.35c.24-.34.47-.66.72-1,1-1.41,2.06-2.85,3.15-4.26l1.52.58-1.3-.88.72-.91c.75-1,1.46-1.83,2.2-2.69.15-.21.38-.48.62-.76l.93-1.1c.42-.48.83-1,1.25-1.42s.67-.73,1-1.09c.71-.79,1.38-1.52,2-2.22l.92-1c1-1,1.94-2,2.89-3l.22-.22c1-1,2-2,3.11-2.95.12-.13.31-.3.5-.47l2.77-2.49c.37-.33.79-.69,1.22-1l2,2.4c-.39.34-.79.67-1.15,1l-2.3,2c-.1.11-.28.27-.46.44l-.44.41c-1.09,1-2.1,2-3.09,2.93l-.32.32L229.54,549l-.91,1c-.68.71-1.34,1.43-2,2.14-.28.34-.65.74-1,1.14s-.79.89-1.18,1.35l-.94,1.1c-.19.23-.38.44-.55.67-.78.92-1.46,1.75-2.14,2.62l-.78,1,0,0c-1.21,1.58-2.27,3-3.26,4.41-.27.35-.47.64-.69.95l-.24.33c-1.07,1.56-2.16,3.15-3.18,4.79C200.21,590.07,193.8,612.63,193.59,637.6Z" transform="translate(0.5 0.5)"/><path class="cls-1" d="M396.34,556q19.88,11.19,20,57.88Q416.47,655,405.87,687t-28.09,53.34q-17.49,21.34-39.08,33.82-32.76,18.92-52.88,15c-1.53-.29-2.29-1.4-2.3-3.36a17.64,17.64,0,0,1,1.51-6.13l8.59-22.21c1.18-2.82,2.36-4.58,3.54-5.26a7,7,0,0,1,4.33-.74q14.75.84,34.31-10.45,19.31-11.14,29.69-27.67t13.37-40.17a111.62,111.62,0,0,1-19,21.79,159.35,159.35,0,0,1-25.64,18q-20.32,11.73-35,11.7T277.08,714q-7.53-10.71-7.59-29.68-.11-39.09,19.27-69.59T344,563.54Q376.46,544.78,396.34,556ZM365.46,656.37a62.56,62.56,0,0,0,8.68-32.79q-.06-21.3-7.84-27.49t-22.51,2.33q-16.5,9.52-24.6,24.29t-8,36.66q.11,37.95,32.62,19.17,12.94-7.47,21.69-22.17" transform="translate(0.5 0.5)"/><path class="cls-1" d="M292.94,791.4a38.48,38.48,0,0,1-7.42-.68c-1.33-.25-3.56-1.22-3.57-4.89a18.5,18.5,0,0,1,1.62-6.72l8.58-22.19c1.36-3.27,2.7-5.18,4.23-6.06a8.52,8.52,0,0,1,5.28-1c9.39.55,20.64-2.91,33.36-10.25s22.38-16.39,29.14-27.14c5.8-9.24,9.88-20.33,12.15-33a112.19,112.19,0,0,1-15.43,16.68A160.76,160.76,0,0,1,335,714.37c-13.73,7.93-25.72,12.07-35.75,11.91-10.25,0-18.14-3.85-23.44-11.4-5.2-7.38-7.85-17.66-7.88-30.58-.08-26.25,6.49-50,19.51-70.45s31.75-37.82,55.73-51.67c22.09-12.75,40.25-15.31,54-7.6h0c13.72,7.72,20.72,27.65,20.81,59.25.08,27.46-3.48,52.24-10.56,73.64S390.73,727,379,741.32a145.45,145.45,0,0,1-39.52,34.19C321.17,786.08,305.56,791.4,292.94,791.4Zm7.51-38.4a4.82,4.82,0,0,0-2.5.59c-.49.28-1.52,1.24-2.88,4.5l-8.57,22.17a15.87,15.87,0,0,0-1.4,5.56c0,1.62.61,1.73,1,1.81,13,2.5,30.39-2.5,51.8-14.85a142.24,142.24,0,0,0,38.65-33.46c11.48-14,20.84-31.79,27.82-52.84s10.47-45.52,10.4-72.64c-.09-30.38-6.55-49.39-19.21-56.51h0c-12.67-7.13-29.77-4.58-50.83,7.58-23.54,13.59-41.93,30.62-54.65,50.63s-19.09,43.11-19,68.75c0,12.26,2.49,21.94,7.3,28.78s11.58,10,20.88,10.06,20.92-3.84,34.16-11.48A159,159,0,0,0,358.8,693.8a110.69,110.69,0,0,0,18.75-21.49l3.7-5.49-.83,6.57c-2,15.91-6.58,29.64-13.6,40.81s-17.2,20.67-30.23,28.19c-13.26,7.66-25.11,11.26-35.19,10.66A7.86,7.86,0,0,0,300.45,753Zm25.36-66.65a14,14,0,0,1-7.15-1.8c-6.08-3.49-9.05-11.73-9.08-25.18-.05-14.81,2.72-27.39,8.23-37.42s14-18.43,25.2-24.9c10.38-6,18.55-6.73,24.27-2.19s8.4,13.87,8.44,28.71a64.39,64.39,0,0,1-8.91,33.6c-5.93,10-13.42,17.64-22.25,22.74C337.1,684.21,330.9,686.35,325.81,686.35Zm32.7-91.26c-3.85,0-8.51,1.56-13.93,4.69-10.69,6.18-18.77,14.15-24,23.69s-7.88,21.63-7.84,35.89c0,12.06,2.56,19.62,7.5,22.46s12.55,1.25,22.75-4.64c8.36-4.83,15.47-12.1,21.12-21.62h0a61.33,61.33,0,0,0,8.47-32c0-13.63-2.48-22.47-7.25-26.25A10.57,10.57,0,0,0,358.51,595.09Z" transform="translate(0.5 0.5)"/><line class="cls-1" x1="220.19" y1="707.7" x2="297.66" y2="752.72"/><rect class="cls-1" x="256.85" y="684.9" width="3.15" height="89.61" transform="translate(-501.83 586.99) rotate(-59.84)"/><path class="cls-1" d="M218.38,812.49,174.5,787l-.11-36.23,75.15,43.68.06,0-1.6,2.72,0,0c-.37-.21-1.92-.63-6.72,2.13Zm-40.74-27.34,40.75,23.69,21.3-12.3a27.63,27.63,0,0,1,3.94-1.93l-66.07-38.39Z" transform="translate(0.5 0.5)"/><g class="cls-3"><path class="cls-1" d="M151.59,749.91l-77.47-45a2.55,2.55,0,0,1-.82-.79l77.48,45A2.52,2.52,0,0,0,151.59,749.91Z" transform="translate(0.5 0.5)"/><g class="cls-4"><g class="cls-3"><path class="cls-1" d="M151.59,749.91l-77.47-45a2.55,2.55,0,0,1-.82-.79l77.48,45a2.52,2.52,0,0,0,.81.79" transform="translate(0.5 0.5)"/></g></g></g><path class="cls-1" d="M146,886.63a1.56,1.56,0,0,1-.7-.16,3.07,3.07,0,0,1-.31-.17L67.68,841.43a7.62,7.62,0,0,1-.68-.5,1.48,1.48,0,0,1-.28-.28h0a3.08,3.08,0,0,1-.52-.63,2.33,2.33,0,0,1-.19-.28,2.93,2.93,0,0,1-.31-.52l-.08-.14a6.55,6.55,0,0,1-.5-1.37s-.1-.36-.11-.38l-.08-.35-.15-.66s0-.31,0-.35c-.08-.51-.12-.91-.16-1.34s0-.48,0-.61c0-.5-.07-1.1-.07-1.76l0-11.09A23.51,23.51,0,0,1,67,809.66l.68-1.1a1.71,1.71,0,0,1,.21-.26,2.15,2.15,0,0,1,.26-.32h0s.11-.22.26-.41c.44-.56.89-1.05,1.37-1.57l.28-.26c.51-.5,1-.93,1.48-1.37s1.06-.83,1.51-1.15l.51-.38.27-.18.44-.3c.59-.39,1.22-.79,1.87-1.14L98,788.6a1.59,1.59,0,0,1,1.58,0l77.45,45a1.57,1.57,0,0,1,0,2.72L155.15,849c-.52.31-1,.65-1.54,1l-.38.25-1.26-1,.9,1.29c-.59.41-1.13.8-1.63,1.22s-1,.9-1.41,1.28l-.29.27c-.4.42-.78.83-1.13,1.27a2.7,2.7,0,0,0-.31.43,1.31,1.31,0,0,1-.25.33l-.1.15-.14.2c-.13.21-.26.4-.37.61a20.45,20.45,0,0,0-2.17,10l0,11.1a12.67,12.67,0,0,0,.05,1.55v.4c.05.49.08.78.13,1.08,0,0,.06.47.07.48,0,.28.1.54.17.8a2.26,2.26,0,0,1,.11.43,6,6,0,0,0,.27.68l.18.33.06.09a1.18,1.18,0,0,1,.17.22l.12.13.11.1v0l.2.12a1.57,1.57,0,0,1-.79,2.93Zm-76.85-48a2.07,2.07,0,0,0,.24.17l72.87,42.31a2.45,2.45,0,0,1,0-.48,4.44,4.44,0,0,1-.12-.94,2.72,2.72,0,0,1,0-.63,14.14,14.14,0,0,1-.06-1.73l0-11.09a23.51,23.51,0,0,1,2.56-11.5c.15-.29.33-.55.51-.83l.17-.27a2,2,0,0,1,.22-.27l.07-.11a5.69,5.69,0,0,1,.53-.73c.38-.48.81-1,1.28-1.45a5.35,5.35,0,0,1,.53-.48A15.64,15.64,0,0,1,149,849.4c.78-.65,1.38-1.09,2-1.55l.46-.32.36-.24c.54-.35,1.1-.71,1.68-1L173.05,835l-74.31-43.2L77.67,804c-.61.34-1.16.7-1.69,1l-1.1.77c-.39.28-.77.56-1.13.85-.6.51-1,.9-1.4,1.28a2.73,2.73,0,0,1-.25.23,13.37,13.37,0,0,0-1.1,1.26l-.25.28h0a3,3,0,0,1-.18.29l-.29.38-.58.92a20.6,20.6,0,0,0-2.12,9.89l0,11.09c0,.61,0,1.15.06,1.69,0,.3,0,.43,0,.56s.05.49.1.78c0,.05,0,.33,0,.37l.23,1.05a5.48,5.48,0,0,0,.29.86l.12.22a1.55,1.55,0,0,0,.21.35A2.34,2.34,0,0,1,69.1,838.58Zm-.09-.1h0Z" transform="translate(0.5 0.5)"/><path class="cls-1" d="M176.2,836.57a1.63,1.63,0,0,1-.8-.22L98,791.33a1.59,1.59,0,0,1-.78-1.36L97,718.79a1.57,1.57,0,0,1,.79-1.37,1.59,1.59,0,0,1,1.58,0l44.32,25.76L137.59,736a8,8,0,0,1-.68-1.07h0a.41.41,0,0,1,0-.09.77.77,0,0,1-.07-.16,10.69,10.69,0,0,1-.36-1,3.7,3.7,0,0,1-.13-.74,4.41,4.41,0,0,1-.13-1.1,7.23,7.23,0,0,1,0-.93,2.23,2.23,0,0,1,.05-.36l.19-.78a4.68,4.68,0,0,1,.21-.73c0-.1.1-.32.14-.41a5,5,0,0,1,.36-.8c.09-.2.24-.51.28-.58a3.62,3.62,0,0,1,.24-.43l.2-.31a5.5,5.5,0,0,1,.31-.47l.32-.46.2-.28c.2-.27.39-.53.61-.78l12.28-15.62a1.58,1.58,0,0,1,2-.39l23,13.4a1.55,1.55,0,0,1,.79,1.35L177.77,835a1.6,1.6,0,0,1-1.57,1.58Zm-75.88-47.51,74.29,43.19-.3-108.12-21.07-12.24-11.47,14.58a6.08,6.08,0,0,0-.46.6,4.13,4.13,0,0,1-.31.42l-.29.41c-.26.43-.38.62-.49.77h0s0,.06-.06.13-.24.53-.29.6-.09.24-.12.32l-1.53-.44,1.41.78-.09.32c0,.06-.08.29-.1.35l-1.63.09,1.53.43a5.34,5.34,0,0,0,0,.55,4.92,4.92,0,0,0,.09.76,2,2,0,0,1,0,.34,3.36,3.36,0,0,1,.24.56v0l0,0c.09.17.2.34.32.52L152,748.11a1.57,1.57,0,0,1-2,2.38l-49.84-29Z" transform="translate(0.5 0.5)"/><path class="cls-1" d="M150.77,750.7a1.58,1.58,0,0,1-.79-.21l-77.48-45a1.36,1.36,0,0,1-.41-.34L60.11,691a5.84,5.84,0,0,1-.68-1.11,1.3,1.3,0,0,1-.1-.25,6.66,6.66,0,0,1-.38-1c0-.06-.06-.27-.07-.34a8,8,0,0,1-.18-1.5,6.85,6.85,0,0,1,0-.91,1.5,1.5,0,0,1,.06-.29,4.67,4.67,0,0,1,.08-.52c0-.07.09-.33.11-.4a3,3,0,0,1,.18-.58,3.5,3.5,0,0,1,.17-.52s.3-.68.31-.7a4.12,4.12,0,0,1,.3-.59l.12-.22c.1-.19.22-.39.33-.58l.31-.48.35-.49.19-.26a2.38,2.38,0,0,1,.34-.43,3.71,3.71,0,0,1,.23-.32l43.85-55.69a11.38,11.38,0,0,1,.71-.92,1.91,1.91,0,0,1,.33-.42l.29-.37.71-.82.38-.44c.23-.26.46-.5.69-.73l1.34.88-1-1.25.37-.34c.26-.24.5-.47.75-.67a38.48,38.48,0,0,1,6-4.1l12-6.91c4.57-2.62,7.93-3.24,10.27-1.88l77.49,45a1.58,1.58,0,0,1-1.59,2.73c-.71-.42-2.58-.72-7.12,1.89l-11.94,6.9a40.87,40.87,0,0,0-5.59,3.77l-1.2,1.18c-.2.2-.4.39-.59.61l-1,1.2a5.29,5.29,0,0,1-.48.58l-.22.3c-.17.22-.35.45-.53.7l-43.9,55.77a6.08,6.08,0,0,0-.46.6,4.13,4.13,0,0,1-.31.42l-.29.41c-.26.43-.38.62-.49.77h0s0,.06-.06.13-.24.53-.29.6-.09.24-.12.32l-1.53-.44,1.41.78-.09.32c0,.06-.08.29-.1.35l-1.63.09,1.53.43a5.34,5.34,0,0,0,0,.55,4.92,4.92,0,0,0,.09.76,2,2,0,0,1,0,.34,3.36,3.36,0,0,1,.24.56v0l0,0c.09.17.2.34.32.52L152,748.11a1.57,1.57,0,0,1-1.2,2.59ZM74.31,702.88l69.36,40.3L137.59,736a8,8,0,0,1-.68-1.07h0a.41.41,0,0,1,0-.09.77.77,0,0,1-.07-.16,10.69,10.69,0,0,1-.36-1,3.7,3.7,0,0,1-.13-.74,4.41,4.41,0,0,1-.13-1.1,7.23,7.23,0,0,1,0-.93,2.23,2.23,0,0,1,.05-.36l.19-.78a4.68,4.68,0,0,1,.21-.73c0-.1.1-.32.14-.41a5,5,0,0,1,.36-.8c.09-.2.24-.51.28-.58a3.62,3.62,0,0,1,.24-.43l.2-.31a5.5,5.5,0,0,1,.31-.47l.32-.46.2-.28c.2-.27.39-.53.61-.78l43.82-55.67c.17-.23.37-.5.57-.75l.32-.42.3-.35,1.22-1.44c.25-.28.5-.53.74-.77l1.35-1.31a41.77,41.77,0,0,1,6.09-4.13l11.95-6.91a25.05,25.05,0,0,1,4-1.89l-72.78-42.3c-.71-.41-2.58-.71-7.12,1.9l-11.94,6.89a37.19,37.19,0,0,0-5.57,3.79c-.25.2-.43.37-.63.56l-.59.6c-.22.22-.41.41-.6.62l-1.56-.6,1.19,1-.67.76a3.7,3.7,0,0,1-.37.46,1.54,1.54,0,0,1-.17.24,9.92,9.92,0,0,0-.67.87L64.28,681.44a4.11,4.11,0,0,1-.47.59l-.29.44-.28.39a2,2,0,0,1-.15.24l-.18.31a3.14,3.14,0,0,1-.18.31s-.2.43-.22.47a2,2,0,0,1-.17.36l-1.59-.3,1.46.6a3.39,3.39,0,0,1-.15.45,3.59,3.59,0,0,1-.08.35,2.34,2.34,0,0,1-.12.64s0,0,0,.06,0,.27,0,.42a4.92,4.92,0,0,0,.09.76,3.52,3.52,0,0,0,.25.78,1.48,1.48,0,0,1,.12.29l0,0a4.11,4.11,0,0,0,.24.39Z" transform="translate(0.5 0.5)"/><path class="cls-1" d="M206.48,654.1q6.11-3.51,8.78-1.85t2.69,8.09l.43,150.31,22.09-12.75q6.1-3.52,8.4-2.07t2.3,8.17l0,11.09A21.36,21.36,0,0,1,249,825.61q-2.28,4.08-8.38,7.6l-86.1,49.72c-4.06,2.34-6.91,3.06-8.52,2.14s-2.43-3.51-2.44-7.8l0-11.09a21.66,21.66,0,0,1,2.38-10.74q2.41-4.31,8.51-7.83L176.21,835l-.32-111.79-18,23.26a9.69,9.69,0,0,1-3.29,3.07c-1.69,1-3,.84-3.82-.42l-12-14.12a5.58,5.58,0,0,1-1-3.22q0-2.91,2.78-6.28l43.87-55.73a30.55,30.55,0,0,1,4.31-4.82,38.18,38.18,0,0,1,5.83-4Z" transform="translate(0.5 0.5)"/><path class="cls-1" d="M147.59,887a4.75,4.75,0,0,1-2.42-.6c-2.17-1.23-3.22-4.23-3.24-9.16l0-11.1a23.36,23.36,0,0,1,2.59-11.5c1.74-3.12,4.8-6,9.09-8.43l21-12.16-.3-106.28-15.19,19.63a11.27,11.27,0,0,1-3.75,3.46c-3.44,2-5.28,0-5.92-.9l-11.89-14a7.08,7.08,0,0,1-1.4-4.23c0-2.31,1-4.76,3.14-7.29l43.84-55.7a31.87,31.87,0,0,1,4.51-5,40.38,40.38,0,0,1,6.09-4.13l11.93-6.89c4.65-2.68,8.05-3.28,10.4-1.83s3.42,4.52,3.44,9.43l.41,147.59,19.74-11.4c4.73-2.72,7.91-3.37,10-2s3,4.33,3,9.49l0,11.1a23,23,0,0,1-2.45,11.28c-1.65,3-4.67,5.72-9,8.21l-86.1,49.71C152.06,886.14,149.55,887,147.59,887Zm29.87-168.42.33,117.29L155.16,849c-3.8,2.19-6.46,4.63-7.92,7.24a20.31,20.31,0,0,0-2.19,10l0,11.1c0,5,1.16,6.16,1.65,6.43s2,.71,7-2.14l86.1-49.71c3.81-2.2,6.43-4.55,7.79-7a19.89,19.89,0,0,0,2.06-9.74l0-11.1c0-5.27-1.11-6.54-1.58-6.84s-1.86-.72-6.76,2.1l-24.45,14.12-.43-153c0-3.58-.71-6-2-6.76-.7-.43-2.56-.77-7.15,1.88l-11.94,6.89a38.27,38.27,0,0,0-5.6,3.78,29.31,29.31,0,0,0-4.07,4.57l-43.89,55.77c-1.63,2-2.45,3.75-2.44,5.3a3.88,3.88,0,0,0,.74,2.31l11.91,14c.32.45.56.81,1.83.08a8.17,8.17,0,0,0,2.77-2.58Z" transform="translate(0.5 0.5)"/><line class="cls-1" x1="60.35" y1="686.4" x2="138.25" y2="732.28"/><rect class="cls-1" x="97.23" y="663.64" width="3.15" height="90.41" transform="translate(-561.6 434.7) rotate(-59.5)"/><path class="cls-1" d="M454.46,467.24h-.26a8.75,8.75,0,0,1-1.22-.09l-.32,0A5.87,5.87,0,0,1,452,467a6.93,6.93,0,0,1-.69-.25H451l-.34-.33-.3-.22-.3-.27a2.94,2.94,0,0,1-.38-.42,5.14,5.14,0,0,1-.49-.71,8.06,8.06,0,0,1-.47-.95l-4.82-10.16a5.21,5.21,0,0,1-.29-.83l1.45-.72-1.56.23,0-.53-.05-15.75-1.62.37c-.62.14-1.25.29-1.85.41L433.79,438c-.54.09-1.07.18-1.59.25l-2.11.26-1.45.17-2.06.16-1.11.09-.41,0c-1,.05-1.94.06-2.91.05l-.76,0c-.85,0-1.7-.06-2.53-.13l-.36,0c-.77-.06-1.53-.15-2.29-.26l-1-.17c-1-.16-1.8-.33-2.63-.52-1.18-.28-2.07-.53-2.94-.8l-.65-.21c-.84-.28-1.69-.57-2.53-.91s-1.81-.77-2.65-1.18l-.61-.29c-.82-.41-1.65-.84-2.45-1.31s-1.41-.85-2-1.26c-.84-.57-1.39-1-1.91-1.38l-.3-.23-1-.84c-.55-.5-.89-.84-1.22-1.17L394,428c-.24-.26-.48-.53-.7-.79l-.26-.33c-.24-.31-.48-.62-.69-.94-.34-.51-.56-.88-.76-1.25l-.16-.32c-.14-.29-.28-.58-.4-.87l-.14-.35a10.69,10.69,0,0,1-.36-1.09,12.24,12.24,0,0,1-.29-1.31l0-.37a11.19,11.19,0,0,1-.11-1.49L390,374.06h3.15a8.91,8.91,0,0,0,.09,1.15,9.93,9.93,0,0,0,.21,1.1,9,9,0,0,0,.3.88,9.24,9.24,0,0,0,.41.93c.28.53.45.82.63,1.11s.44.62.64.87l.21.26c.19.23.38.44.58.66l-.92,1.33,1.13-1.09c.28.28.57.57.89.85s.72.63,1,.87l-.68,1.46,1-1.24c.47.37,1,.73,1.49,1.09.8.53,1.39.9,2,1.27s1.55.86,2.34,1.25l.57.28c.78.38,1.57.73,2.37,1.06s1.64.62,2.44.88l.59.19c.8.25,1.62.48,2.45.68,1,.23,1.8.39,2.58.52l.59.1c.86.13,1.72.24,2.6.32l.21,1.6.12-1.57c.78.06,1.56.1,2.35.12h.72c.89,0,1.8,0,2.72,0,.46,0,1-.06,1.44-.1l.88-.07L427,367a5.28,5.28,0,0,1,1-2.91c1.56-2.38,4.94-5.05,10.34-8.16a79.6,79.6,0,0,1,14.37-6.37c2.81-.94,5.6-1.76,8.34-2.43l-7.5-4.36-.94-.58-.26-.19a6.51,6.51,0,0,1-.6-.43l-.28-.22-.4-.35a5.63,5.63,0,0,1-.64-.69,4.54,4.54,0,0,1-.41-.65,3.73,3.73,0,0,1-.27-.78l-.06-.54-.13-44.8h0v0l3.15.06a1.46,1.46,0,0,1,.31.27l1,.78c.44.3.7.46,1,.63l86.36,50.19-.11-36.67a9.59,9.59,0,0,1,.06-1.07,10,10,0,0,1,.2-1.09c1-4.09,4.19-7.74,9.57-10.84.57-.33,1.13-.63,1.7-.92l.35-.17c.62-.31,1-.49,1.35-.65l.47-.2.95,1.31-.61-1.45,1.43-.56c.52-.17.83-.29,1.14-.38l.58-.17c.48-.14.79-.23,1.11-.3l.66-.15,1-.21.76-.12.92-.11,1.18-.11c.31,0,.61,0,.92,0,.57,0,1.14,0,1.72,0l.39,0,0,1.59.36-1.55c.32,0,.63.05,1,.1.62.09,1.12.19,1.61.29l.41.1,1.27.32.46.14c.54.16,1.07.34,1.61.54s1.14.44,1.64.66l.5.23c.39.17.8.37,1.21.57l.47.24c.53.28,1.07.57,1.61.88l48.28,28.06c.47.27.87.47,1.26.66l.31.15c.39.18.79.35,1.19.5s.83.27,1.19.37a11.68,11.68,0,0,0,1.44.3,10.65,10.65,0,0,0,2.29.1,11.26,11.26,0,0,0,1.39-.18c.46-.1.82-.18,1.15-.28L596,301.16c-.34-.2-.64-.39-.93-.58-.47-.32-.67-.47-.86-.61l-.25-.2c-.13-.1-.28-.24-.42-.37a5.17,5.17,0,0,1-.66-.71,4.35,4.35,0,0,1-.41-.65,3.87,3.87,0,0,1-.26-.74l-.07-.62L592,251.92h3.15a3.31,3.31,0,0,1,.32.3l.38.34c.29.22.44.33.61.44.44.3.7.46,1,.63l27.34,15.89-.07-26.91h3.15l.08,28.75,19.41,11.27-.11-36.69a8.68,8.68,0,0,1,.06-1,8.87,8.87,0,0,1,.17-1c.91-4.07,4.16-7.74,9.66-10.92.59-.34,1.18-.66,1.76-1l.36-.18c.61-.3,1-.49,1.39-.66l.5-.22,1.22-.51.64-.23c.42-.15.75-.27,1.07-.37l.74-.22,1-.27.73-.17,1-.18.72-.12c.31,0,.63-.08.94-.12l.71-.06a14.92,14.92,0,0,1,3,0l.36,0v1.59l.36-1.55,1.2.17c.56.1.94.17,1.32.26l.51.12c.41.1.83.21,1.25.34l.34.1c.53.16,1.07.35,1.61.55l.4.16,1.23.51.55.25,1.18.57.48.25c.54.28,1.07.57,1.61.88L733.57,261c.47.27.87.47,1.26.66l-.36,1.58.66-1.43c.4.18.81.36,1.2.5a11.87,11.87,0,0,0,1.2.37A14.48,14.48,0,0,0,739,263a10.61,10.61,0,0,0,2.29.09,11.26,11.26,0,0,0,1.39-.18,13.28,13.28,0,0,0,1.74-.46c.77-.27,1.31-.48,1.87-.73.77-.37,1.37-.68,2-1l.16-.1-36.25-21.07c-.39-.22-.74-.44-1.07-.66l-.32-.22-.63-.46-.28-.24c-.22-.18-.45-.38-.66-.59l-.27-.27c-.19-.21-.38-.43-.55-.66a6.2,6.2,0,0,1-.69-1.14,6,6,0,0,1-.31-1,3.38,3.38,0,0,1-.09-.61l-.13-44.94h3.15v.45l.1,0a2.07,2.07,0,0,0,.27.52,4.31,4.31,0,0,0,.42.5,8.22,8.22,0,0,0,.65.6c.35.29.53.41.7.53a13.2,13.2,0,0,0,1.15.74l48.76,28.34-.48,1.54.79-1.37c.78.45,1.57.89,2.36,1.3l.71.37c.76.39,1.51.77,2.26,1.12l-.3,1.61.66-1.43c.86.4,1.72.77,2.59,1.13l.54.22c.83.34,1.53.61,2.23.86l.6.22c.88.31,1.74.6,2.61.86l.34.1c.92.27,1.64.47,2.35.65l.72.19c.87.21,1.75.41,2.63.58s1.83.33,2.66.45l3.1.38,1.4.12.87.06c.5,0,1,0,1.52.06l.74,0c.76,0,1.52,0,2.27,0,1.14,0,2.26-.1,3.38-.17l1.8-.16c.75-.07,1.49-.15,2.23-.25l1.78-.25c.73-.12,1.47-.25,2.19-.39s1.16-.23,1.74-.36c.73-.16,1.45-.34,2.18-.53l.32-.08,1.16-.31-39-22.66c-.38-.22-.73-.44-1.07-.67l-.32-.22c-.23-.16-.43-.31-.62-.46l-.27-.22c-.24-.2-.46-.4-.66-.59l-.26-.26a7.91,7.91,0,0,1-.57-.68,6,6,0,0,1-.69-1.14,6,6,0,0,1-.32-1,3.9,3.9,0,0,1-.08-.61l-.13-44.94h3.15v.45l.1,0a3,3,0,0,0,.27.52c.19.24.3.37.43.51a7.81,7.81,0,0,0,.65.59,6.7,6.7,0,0,0,.69.52c.54.37.84.56,1.16.75l46.4,27c.53.32,1,.64,1.51,1l.31.22-.78,1.38,1.09-1.16c.22.16.43.31.63.47l.32.27c.35.29.65.56.93.84a13.46,13.46,0,0,1,1.11,1.22c.38.51.58.82.77,1.12a10.23,10.23,0,0,1,.67,1.38,8.64,8.64,0,0,1,.36,1.25l.09.42a8.74,8.74,0,0,1,.08,1.14l.08,26.74c12.35-7.38,18.64-15.34,18.7-23.69V193l9.71,4.54a3.87,3.87,0,0,0,.73.31,7,7,0,0,0,.69.17,5.54,5.54,0,0,0,.9.05,4.54,4.54,0,0,0,.69-.06l.67,1.49-.33-1.54.5-.14.85,1.39-.51-1.49c.19-.06.39-.15.59-.23l1,1.3-.67-1.43c.32-.14.64-.31,1-.49l14.65-8.46c2.25-1.3,2.52-1.93,2.54-2l3.13.14.12,44.81c0,1.53-1.23,2.89-4.09,4.54l-14.65,8.46c-.4.23-.81.44-1.21.63l-.3.12c-.35.15-.63.27-.9.36l-.35.1c-.36.11-.61.18-.85.23l-.41.07-.77.1-.51,0a7.47,7.47,0,0,1-1,0l-.49-.07a5,5,0,0,1-.7-.16l-.36-.1a7.18,7.18,0,0,1-1.14-.47l-5.24-2.45c-.84,9.15-8,17.67-21.31,25.35-1.24.72-2.48,1.39-3.75,2l-1.25.59c-.85.4-1.7.8-2.56,1.17l-1,.42-.5.2c-.83.32-1.59.63-2.36.9-.41.15-.82.28-1.24.42l-.43.14c-.76.25-1.53.49-2.3.72-.51.15-1,.28-1.54.41-1,.25-1.74.44-2.51.62-.6.13-1.2.25-1.81.36s-1.53.29-2.3.41l-1.86.27c-.78.1-1.56.19-2.34.26s-1.26.12-1.89.16l-1,.09c-.83,0-1.67.08-2.51.09s-1.59,0-2.39,0l-.51,0c-.81,0-1.35,0-1.88-.07l-.74-.05-1.65-.13-1-.11-1.42-.17-.88-.12c-.87-.14-1.74-.28-2.61-.45-1.12-.21-2-.43-3-.65l-.57-.14c-.93-.24-1.68-.45-2.43-.67l-.58-.17c-.91-.28-1.82-.58-2.72-.9l-.38-.14c-1-.36-1.73-.64-2.46-.94l-.71-.29-1.05-.44.06,22.29c0,2.12-1.71,4.12-5.2,6.13l-13.73,7.93c-.69.4-1.38.75-2.05,1.07-.85.39-1.48.64-2.11.86a17.39,17.39,0,0,1-2.11.6l-.31.06a16.07,16.07,0,0,1-1.78.23c-.37,0-.61,0-.84,0a13.33,13.33,0,0,1-2-.15,13.56,13.56,0,0,1-1.56-.3l-.37-.09c-.43-.12-.88-.26-1.33-.42s-1.07-.42-1.56-.64l-.29-.14c-.52-.25-1-.49-1.44-.75l-25.42-14.78.1,36.22a4.35,4.35,0,0,1-.94,2.6,13.84,13.84,0,0,1-4.35,3.5L688,344c-.7.4-1.38.75-2,1.07-.85.39-1.48.64-2.11.86a19.45,19.45,0,0,1-2.11.6l-.32.06a13.62,13.62,0,0,1-1.77.23c-.36,0-.6,0-.85,0a16.48,16.48,0,0,1-2-.15,14.19,14.19,0,0,1-1.57-.3l-.36-.09c-.43-.12-.88-.25-1.33-.41-.6-.22-1.09-.43-1.57-.65l-.35-.17q-.69-.33-1.38-.72L662.78,340l0,17c0,2.1-1.7,4.11-5.19,6.12L643.9,371c-.7.4-1.38.75-2,1.07-.85.39-1.49.64-2.11.86a17.07,17.07,0,0,1-2.11.59,15.75,15.75,0,0,1-2.09.3c-.37,0-.61,0-.84,0a13.32,13.32,0,0,1-2-.14,13.56,13.56,0,0,1-1.56-.3l-.35-.09q-.67-.18-1.35-.42c-.6-.21-1.08-.42-1.56-.64l-.36-.17c-.44-.22-.91-.46-1.37-.73l-25.42-14.77.1,36.21a4.12,4.12,0,0,1-.44,1.81,7.84,7.84,0,0,1-.49.8,10.13,10.13,0,0,1-2.25,2.14,25.13,25.13,0,0,1-2.11,1.37L582,406.76c-.69.4-1.37.75-2,1.07-.85.39-1.49.64-2.11.86a20.11,20.11,0,0,1-2.11.6,17.66,17.66,0,0,1-2.1.29c-.35,0-.6,0-.84,0a14.76,14.76,0,0,1-2-.14,13.56,13.56,0,0,1-1.56-.3l-.35-.09q-.67-.18-1.35-.42c-.6-.21-1.08-.42-1.56-.64l-.35-.17q-.69-.33-1.38-.72L533.7,389.37l.08,31.16a16.55,16.55,0,0,1-.7,4.71c-2.2,7.49-10.09,15.07-24.13,23.18A160.84,160.84,0,0,1,484,460.06a139.89,139.89,0,0,1-25.89,6.85l-1.31.18-.39,0-.85.07-.37,0Zm.59-3.16.42,1.55-.1-1.57.72-.07.52,1.53-.18-1.56c.37,0,.77-.1,1.18-.17a136,136,0,0,0,25.31-6.69,157.62,157.62,0,0,0,24.45-11.41c13.13-7.58,20.76-14.75,22.69-21.33a13.56,13.56,0,0,0,.57-3.82l-.1-35-.1.16c-3.74,5.74-11,11.75-21.61,17.87h0c-4.1,2.37-8.5,4.64-13.08,6.74l-2.23,1L493.32,383l1.19-1.1-1.41.74a1.74,1.74,0,0,0-.22-.27,4.54,4.54,0,0,0-.54-.5l-.31-.23c-.33-.24-.52-.36-.72-.48a7.64,7.64,0,0,0-1.09-.5,9.83,9.83,0,0,0-1.42-.42l-.13-1.62-.31,1.54-1.16-.13a16.44,16.44,0,0,0-1.95,0c-.4,0-.64.05-.89.08l-1.24.11c-.34,0-.68.1-1,.16l-1.19.18-1.45.31-.91.19c-.82.19-1.67.41-2.53.66l-2.95.86-2,.6-.1-33.92,59.59,34.62h0l35.22,20.47c.48.27.87.48,1.26.67l.31.14q.6.29,1.2.51c.46.16.83.27,1.19.37a14.43,14.43,0,0,0,1.43.3,12.68,12.68,0,0,0,1.65.12h.55a12.51,12.51,0,0,0,1.49-.2,13.69,13.69,0,0,0,1.73-.45,17.79,17.79,0,0,0,1.87-.74c.77-.36,1.37-.67,2-1L594,396.21a18.62,18.62,0,0,0,1.82-1.18,7.09,7.09,0,0,0,1.57-1.46,1.8,1.8,0,0,0,.21-.35.86.86,0,0,0,.12-.39l-.12-40.07-.8.53c-.42.28-.86.56-1.35.84L581.86,362c-.69.4-1.37.75-2,1.06a21.88,21.88,0,0,1-2.11.87l-.31.1a16.55,16.55,0,0,1-1.8.49l-.32.06a13.66,13.66,0,0,1-1.77.24,14.15,14.15,0,0,1-2.83-.11c-.6-.09-1.08-.19-1.56-.3l-.36-.1c-.43-.11-.88-.25-1.33-.41s-1.08-.42-1.57-.65l-.35-.16c-.46-.23-.92-.46-1.38-.73L453.42,298a7.85,7.85,0,0,1-.71-.43l.12,40.72a2.15,2.15,0,0,0,.31.38l.38.34c.28.21.44.33.61.44.44.3.7.46,1,.63l14.57,8.47-4.08.82a97.15,97.15,0,0,0-11.91,3.22,75.8,75.8,0,0,0-13.81,6.11c-6.09,3.51-8.41,5.83-9.28,7.16a2.25,2.25,0,0,0-.44,1.17l.08,26.63-3.79.35-1.54.11c-1,0-1.94.06-2.91,0h-.77c-.84,0-1.68-.07-2.51-.13l-.37,0c-.94-.08-1.87-.21-2.79-.35l-.48-.08c-1-.17-1.83-.33-2.65-.52-1.19-.28-2.07-.53-2.95-.8l-.63-.21c-.86-.28-1.7-.58-2.54-.91s-1.81-.77-2.66-1.18l-.61-.3c-.84-.42-1.69-.86-2.52-1.35s-1.34-.8-2-1.22c-.84-.56-1.39-1-1.91-1.38l-.33-.25-1-.81c-.56-.51-.9-.84-1.23-1.18l-.24-.27c-.25-.26-.48-.53-.7-.8l0-.05.1,36.54a8.77,8.77,0,0,0,.09,1.15,7.92,7.92,0,0,0,.21,1.11c.1.34.19.61.29.88.2.49.31.71.42.93a10.88,10.88,0,0,0,.63,1.11c.26.37.44.62.64.87l-1,1.26,1.22-1q.27.33.57.66a15.43,15.43,0,0,0,1.1,1.09c.43.38.71.62,1,.86l-.69,1.47,1-1.25c.47.37,1,.73,1.5,1.09.79.53,1.39.91,2,1.28.81.47,1.57.87,2.34,1.25l.56.27c.79.38,1.57.74,2.37,1.06s1.65.62,2.44.88l.59.19c.81.25,1.63.48,2.46.68,1,.24,1.8.39,2.57.52l.6.1.25,1.64.22-1.56c.7.1,1.41.18,2.12.25l.21,1.59.13-1.57c.78.06,1.56.1,2.36.12l.7,0c.91,0,1.81,0,2.72-.05h.37l1-.08,2-.17c.45,0,.92-.1,1.38-.16l2.06-.25,1.52-.24,6-1.09,1.78-.4,5.47-1.31.06,19.76a3.24,3.24,0,0,0,.16.56l4.84,10.2c.11.25.17.39.24.52l-1.08,1.24,1.28-.92-.11.16.36.11v0l.15.09-.22,1.6.62-1.46a3.75,3.75,0,0,0,.39.09,8.73,8.73,0,0,0,.87.08Zm-3.38-.07-.49.75.49-.47ZM487.93,377l.63.06.88.17a13.25,13.25,0,0,1,1.62.45l.3.11a10.56,10.56,0,0,1,1.52.72c.28.16.53.32.76.48l.65.46a7.47,7.47,0,0,1,.75.68,7.61,7.61,0,0,1,.62.74,5.76,5.76,0,0,1,.53.92,4.22,4.22,0,0,1,.33,1.08,3.38,3.38,0,0,1,.06.67l.07,22.95c3.69-1.76,7.25-3.63,10.6-5.57h0c9.3-5.37,15.88-10.58,19.58-15.5l-52.72-30.64.07,24.23,1-.28c.91-.26,1.8-.49,2.66-.7l.53-.11.65,1.48-.22-1.57,1.57-.33,1-.15,1.44-.22.7-.06L484,377l.89-.08c.88,0,1.54,0,2.18,0l.42,0,.3,1.6Zm109.64-25.83,30.08,17.48c.48.27.87.48,1.27.67l.3.14a12.21,12.21,0,0,0,1.2.5c.47.17.83.28,1.2.38a14.43,14.43,0,0,0,1.43.3,12.44,12.44,0,0,0,1.65.12h.56a12.73,12.73,0,0,0,1.47-.2,14.37,14.37,0,0,0,1.74-.45,18.44,18.44,0,0,0,1.86-.74c.77-.36,1.37-.67,2-1l13.73-7.93c2.67-1.54,3.62-2.76,3.62-3.39l-.06-22.47,12.18,7.07c.48.27.87.48,1.26.67l-.36,1.57.67-1.43a12.21,12.21,0,0,0,1.2.5c.47.17.83.28,1.19.38a12.49,12.49,0,0,0,1.44.3,11.12,11.12,0,0,0,2.19.11,10.59,10.59,0,0,0,1.48-.2,13.44,13.44,0,0,0,1.74-.45,17.79,17.79,0,0,0,1.87-.74c.78-.36,1.38-.68,2-1L700,333.42a10.85,10.85,0,0,0,3.38-2.63,1.45,1.45,0,0,0,.33-.73L703.61,290l-.8.53c-.42.28-.86.56-1.35.84l-13.55,7.83c-.69.4-1.38.75-2,1.06a19.21,19.21,0,0,1-2.1.86,18,18,0,0,1-2.12.6l-.31.06a14.23,14.23,0,0,1-6.16-.17l-.35-.09c-.45-.12-.9-.26-1.34-.42-.61-.21-1.09-.42-1.58-.64l-.35-.17c-.45-.22-.92-.46-1.38-.73l-74.32-43.19c-.26-.14-.49-.29-.71-.43l.14,40.82.3.29.37.33c.3.23.46.34.62.45.44.29.7.45,1,.62l47.16,27.41-3,1.44c-.86.4-1.49.65-2.11.87a20.35,20.35,0,0,1-2.11.59l-.31.06a13.45,13.45,0,0,1-4.61.13,13.56,13.56,0,0,1-1.56-.3l-.37-.1c-.43-.11-.89-.25-1.34-.41s-1.07-.42-1.55-.64l-.35-.17c-.47-.23-.93-.46-1.39-.73l-48.3-28.07c-.56-.32-1.05-.59-1.54-.84l-.33-.17-1.21-.58-.45-.2c-.46-.2-.9-.38-1.35-.55-.6-.23-1.08-.38-1.56-.53l0-1.63-.43,1.52c-.35-.1-.7-.2-1-.28l-.43-.1c-.42-.09-.85-.17-1.28-.23s-.64-.08-.9-.11l-.48,0a15.3,15.3,0,0,0-1.7-.06l-.79,0-.48-1.54.11,1.57-2.11.27c-.28,0-.55.1-.82.16l-.66.15c-.28.06-.56.14-.84.22l-3.69,1.35c-.34.15-.67.31-1,.47l-.3.14c-.78.4-1.3.68-1.83,1-4.59,2.65-7.31,5.63-8.07,8.84a6.26,6.26,0,0,0-.14.73c0,.23,0,.47,0,.7l.11,37.16a25,25,0,0,1,6.69-5.35c.57-.33,1.14-.64,1.7-.93l.36-.17,1,1.27-.69-1.41c.35-.18.7-.35,1-.5l.49-.21,1.2-.49.63-.23,1.07-.36.6-.17,1.08-.3.75-.17.94-.18.71-.12,1-.12.76-.07c.45,0,.9-.06,1.35-.07s1.14,0,1.72,0l.41,0c.58.06,1,.09,1.33.15.62.09,1.11.18,1.6.29l.39.09c.49.11.89.22,1.29.33l.46.14c.53.16,1.07.33,1.61.53s1.13.45,1.63.66l.4.18,1.32.63.47.24c.55.28,1.11.58,1.67.91Zm-51-2.68,19.09,11.1c.48.27.87.47,1.27.66l.29.14c.41.19.81.36,1.21.51s.83.27,1.19.37c.67.17,1.06.25,1.44.31a10.52,10.52,0,0,0,2.28.09,11.41,11.41,0,0,0,1.4-.18,14.2,14.2,0,0,0,1.74-.46c.77-.27,1.31-.48,1.86-.73.77-.37,1.37-.68,2-1L592.81,352l-15-8.69c-.51-.3-1-.57-1.54-.84l.28-1.62-.71,1.41c-.37-.19-.74-.37-1.1-.53l-.45-.21c-.46-.19-.9-.38-1.35-.54-.61-.23-1.09-.39-1.56-.53l.15-1.6-.56,1.48-1-.27-.41-.1-1.3-.24c-.41-.06-.72-.09-1-.11l-.45-1.63-.1,1.57c-.5,0-1-.05-1.47,0l-1.17.06-2.11.27-.82.16-2.15.57-.88.29-.65.23-.91.38-.62.26c-.31.13-.62.29-.93.44l-.34.17c-.79.39-1.31.67-1.83,1A20.87,20.87,0,0,0,546.53,348.45Zm157.08-60.1,30.08,17.48c.48.27.87.48,1.27.67l-.36,1.57.66-1.43a12.21,12.21,0,0,0,1.2.5c.46.17.83.28,1.2.38a11.6,11.6,0,0,0,1.43.3,12.44,12.44,0,0,0,1.65.12h.56a12.73,12.73,0,0,0,1.47-.2,14.37,14.37,0,0,0,1.74-.45,18.44,18.44,0,0,0,1.86-.74c.78-.36,1.38-.67,2-1l13.72-7.93c3.36-1.93,3.63-3.09,3.63-3.4l-.08-27.26,2.69,1.3c1,.47,1.88.85,2.74,1.2l.51.21c.87.35,1.57.62,2.27.88l.61.22c.86.31,1.73.59,2.59.86l.31.09c.95.28,1.67.48,2.39.66l.7.18c.88.21,1.76.41,2.64.58s1.84.34,2.67.46l.12,1.62.21-1.56.29,1.62.21-1.56,4.54.43c.5,0,1,.05,1.52.06l.74,0c.75,0,1.51,0,2.27,0s1.61,0,2.41-.09l1-.08c.61,0,1.21-.09,1.81-.15s1.49-.16,2.23-.25c.59-.08,1.19-.16,1.77-.26.74-.12,1.47-.25,2.2-.39s1.16-.22,1.73-.35c.74-.16,1.46-.35,2.18-.53s1.2-.31,1.68-.45c.73-.21,1.46-.45,2.18-.69l.45-.14,1.15-.38c.74-.27,1.46-.56,2.19-.85l.59-.23.94-.37c.82-.36,1.63-.74,2.44-1.13l1.21-.56c1.2-.6,2.39-1.24,3.58-1.93,13.17-7.6,19.84-15.85,19.81-24.5v-3l9.7,4.54a4.9,4.9,0,0,0,.74.31l.69.17a6.76,6.76,0,0,0,.88,0,4.41,4.41,0,0,0,.7-.07l.67,1.49-.33-1.54.5-.14.84,1.4-.5-1.49.59-.24,1,1.31-.66-1.43c.31-.15.63-.31.95-.5l14.65-8.46c2.26-1.3,2.53-1.93,2.54-1.95l-.13-40.7c-.3.19-.61.38-1,.58l-14.64,8.46c-.41.23-.82.44-1.21.62l-.3.13c-.37.15-.64.26-.91.35l-.35.11c-.36.11-.6.17-.84.23l-.41.07-.79.1h-.32a8.75,8.75,0,0,1-1.18,0l-.39-.05c-.26,0-.53-.11-.8-.18l-.39-.11a7.63,7.63,0,0,1-1.12-.47l-5.24-2.45c-.85,9.16-8,17.68-21.31,25.36-.25.15-.51.28-.77.42l-2.83,1.56-.09-32.09a5.06,5.06,0,0,0-.05-.68,6.88,6.88,0,0,0-.23-.87,5.41,5.41,0,0,0-.38-.87c-.23-.37-.37-.59-.53-.8a8.1,8.1,0,0,0-.78-.91c-.39-.38-.63-.6-.89-.81L822,188l-.48-.35-.38-.27a17.42,17.42,0,0,0-1.52-1l-46.39-27c-.39-.22-.74-.45-1.07-.67l-.31-.22-.33-.23.12,39.89-1.37,1,1.47-.58a2.07,2.07,0,0,0,.27.52,5.82,5.82,0,0,0,.43.51,8.61,8.61,0,0,0,.65.6l.67.51-.6,1.5.87-1.31q.42.28.9.57L820,227.69l-4,1.37c-1,.33-1.8.58-2.57.8-.47.14-1,.26-1.43.39l-.32.08c-.76.2-1.52.39-2.29.56-.6.14-1.21.25-1.82.37s-1.53.29-2.3.41-1.24.18-1.86.26-1.55.19-2.34.27c-.62.06-1.25.12-1.89.16-1.16.08-2.33.15-3.52.18-.8,0-1.6,0-2.39,0h-.52l-1.87-.08-.91-.06c-.5,0-1-.07-1.48-.12l-3.27-.4c-.87-.13-1.74-.28-2.61-.44-1.12-.22-2-.43-3-.65l-.75-.19c-.76-.2-1.51-.41-2.26-.63l-.57-.16c-.92-.28-1.82-.58-2.73-.9l-.42-.16c-1-.34-1.69-.63-2.42-.92l-.7-.29c-.91-.37-1.81-.77-2.71-1.19l-.37-.18c-.79-.37-1.58-.76-2.36-1.17l-.74-.38c-.83-.44-1.64-.88-2.46-1.35l-.32-.18L712,194.74c-.38-.22-.74-.44-1.07-.66l-.31-.23-.32-.22.11,39.88-1.36,1,1.46-.58a2.42,2.42,0,0,0,.27.52c.19.24.3.37.43.51a8.22,8.22,0,0,0,.65.6c.35.28.52.41.69.53l-.62,1.49.88-1.31.9.56,41,23.8-4.88,2.81a22.32,22.32,0,0,1-2,1.07c-.86.4-1.49.65-2.11.87a20.35,20.35,0,0,1-2.11.59l-.31.07a16.24,16.24,0,0,1-1.79.23,14.2,14.2,0,0,1-2.83-.11,13.79,13.79,0,0,1-1.55-.3l-.36-.09q-.68-.18-1.35-.42c-.59-.22-1.07-.42-1.56-.64l-.35-.17c-.45-.22-.91-.46-1.37-.73l-48.31-28.07c-.57-.33-1.07-.6-1.56-.85l.27-1.63-.71,1.4-1.09-.52-.49-.22c-.37-.16-.74-.32-1.11-.46l.19-1.62-.56,1.47c-.48-.18-1-.35-1.42-.49l.14-1.6-.45,1.51-1.1-.3-.45-.11c-.34-.08-.67-.14-1-.2l-.17-1.62L674,232l-1.18-.14a15.29,15.29,0,0,0-2.57-.05l-.74.07c-.37,0-.64.06-.92.1l-.62.11-.83.16-3.68,1.12-.94.39-.62.27c-.36.16-.71.33-1.07.51l-.54.27c-.53.27-1.08.57-1.63.88-4.7,2.72-7.45,5.7-8.16,8.87a5.22,5.22,0,0,0-.11.69,4.58,4.58,0,0,0,0,.64l.11,37.24a25.63,25.63,0,0,1,6.75-5.36q.88-.51,1.77-1l.42-.21,1.33-.64.49-.21c.54-.23.89-.38,1.24-.51l.56-.21,1.15-.4.73-.22,1-.26.74-.17.94-.19.73-.12.93-.11.71-.07a20.7,20.7,0,0,1,3,0l.37,0,1.28.15.36.07c.48.08.86.16,1.24.24l.52.12c.41.1.83.22,1.25.34l.34.1c.53.17,1.07.35,1.6.56l.41.16,1.23.51.54.24c.39.18.79.38,1.19.58l.49.24c.54.29,1.1.59,1.66.92Zm-51.08-2.7,19.13,11.12c.48.27.87.47,1.27.66l.29.14c.41.19.81.36,1.21.51s.83.28,1.2.37a14.48,14.48,0,0,0,1.43.31,11.2,11.2,0,0,0,2.28.09,11.41,11.41,0,0,0,1.4-.18,13.72,13.72,0,0,0,1.74-.46c.77-.27,1.31-.48,1.87-.73.77-.37,1.37-.68,2-1l12.5-7.23-15-8.68c-.52-.31-1-.59-1.55-.86l-.28-.14c-.53-.26-.89-.44-1.25-.6l-.49-.23-1.11-.46.19-1.62-.56,1.47c-.48-.18-1-.34-1.43-.49l.15-1.6-.46,1.51-1.1-.3-.32-.08-1.11-.22-.42-.07c-.32-.05-.63-.09-.95-.12l-.33-1.62-.12,1.57a16,16,0,0,0-2.59,0l-.49,0-.92.11-.62.1-.83.16-.64.15c-.29.08-.57.15-.85.24l-2.18.73-1,.39-.63.27-1.06.51-.54.27c-.54.27-1.08.57-1.63.89A21.54,21.54,0,0,0,652.53,285.65Z" transform="translate(0.5 0.5)"/><path class="cls-1" d="M411.39,501.29h-.16a15.85,15.85,0,0,1-1.67-.13l-.35-.05c-.39-.06-.87-.15-1.36-.27l-.3-.09c-.44-.11-.87-.25-1.31-.4-.7-.26-1.19-.46-1.68-.69l-.34-.17c-.46-.22-.93-.46-1.41-.74l-71.6-41.61c-.41-.24-.79-.48-1.15-.72l-.28-.19c-.3-.2-.53-.37-.75-.54l-.32-.26c-.22-.19-.43-.37-.62-.55l-.26-.26a8.71,8.71,0,0,1-.66-.76,5.59,5.59,0,0,1-.59-1l-.12-.29a5,5,0,0,1-.21-.7,2.93,2.93,0,0,1-.08-.63l-.05-16.36h3.15l0,16.24-1.38.91,1.47-.58a2.66,2.66,0,0,0,.26.49,4.44,4.44,0,0,0,.43.5,7.22,7.22,0,0,0,.63.57l-.72,1.45,1-1.25a6,6,0,0,0,.55.4l-.6,1.51.87-1.31c.31.2.64.41,1,.62L404.3,496c.49.28.9.49,1.31.68l.29.14a12.48,12.48,0,0,0,1.21.51,11.42,11.42,0,0,0,1.26.4c.63.16,1,.24,1.39.3a15,15,0,0,0,1.52.13h.64a12.43,12.43,0,0,0,1.4-.19,14.91,14.91,0,0,0,1.69-.44c.76-.27,1.28-.48,1.82-.73.78-.37,1.36-.67,2-1l13.55-7.83c3.62-2.08,3.8-3.28,3.8-3.5l-.11-40a22.38,22.38,0,0,1-2.24,1.46l-13.55,7.82c-.68.39-1.34.73-2,1-.86.4-1.47.64-2.07.86l-.32.1a14.85,14.85,0,0,1-3.82.78l-.94,0a15.66,15.66,0,0,1-1.66-.13,17.19,17.19,0,0,1-1.72-.33c-.73-.2-1.17-.33-1.61-.49a16.49,16.49,0,0,1-1.67-.69l-.34-.16c-.47-.22-.94-.47-1.42-.75l-66.82-38.83-.08-28.31a19.84,19.84,0,0,1-3,2.07l-1.57-2.73c2.06-1.19,4.53-3.05,4.53-5.09h3.16L339,413.3l65.16,37.87c.5.28.91.49,1.31.69l.29.14c.41.19.82.36,1.22.51s.9.3,1.25.4a11.73,11.73,0,0,0,1.4.29,12.41,12.41,0,0,0,1.51.14l.7,0a9.27,9.27,0,0,0,1.35-.18,11.27,11.27,0,0,0,1.67-.44,17.54,17.54,0,0,0,1.83-.72c.78-.37,1.37-.67,2-1l13.56-7.82c3.61-2.09,3.8-3.29,3.8-3.51h3.15l.13,44.8c0,2.15-1.72,4.12-5.38,6.23l-13.55,7.83c-.68.39-1.34.73-2,1a19.51,19.51,0,0,1-2.07.86l-.32.11a15.59,15.59,0,0,1-1.77.48l-.31.06a11.7,11.7,0,0,1-1.74.23A7.41,7.41,0,0,1,411.39,501.29Z" transform="translate(0.5 0.5)"/><path class="cls-1" d="M788,140.72a16.81,16.81,0,0,1,8.5-2.59,16.14,16.14,0,0,1,7.93,2.38l74,43q3.11,1.8,3.09,3.07c0,.85-1.11,1.91-3.3,3.17l-14.65,8.46c-2.82,1.63-5.31,1.87-7.5.74l-7.46-3.49q.46,14.28-20.59,26.44a66.86,66.86,0,0,1-32.45,9q-17.43.36-34-9.26l-48.76-28.33c-2.66-1.55-4-3.09-4.08-4.6s1.39-3.12,4.32-4.81L726.79,176a14.25,14.25,0,0,1,16.24-.1l47.68,27.7a26.29,26.29,0,0,0,13.93,4,28.86,28.86,0,0,0,13.81-4.18q7.51-4.33,8.18-9.35t-6.26-9l-46.39-27c-2.67-1.54-4-3.08-4.08-4.6s1.45-3.15,4.5-4.92Z" transform="translate(0.5 0.5)"/><path class="cls-1" d="M794.29,232.55c-11.41,0-22.68-3.18-33.51-9.47L712,194.74c-3.19-1.85-4.78-3.78-4.86-5.9s1.6-4.22,5.1-6.24L726,174.67a18.4,18.4,0,0,1,9.13-2.8,17.94,17.94,0,0,1,8.7,2.7l47.67,27.7A24.75,24.75,0,0,0,804.61,206a27.51,27.51,0,0,0,13-4c4.55-2.62,7-5.38,7.4-8.2s-1.43-5.12-5.48-7.47l-46.4-27c-3.18-1.86-4.77-3.79-4.86-5.9s1.67-4.25,5.29-6.35l13.56-7.83a18.18,18.18,0,0,1,9.3-2.8,17.76,17.76,0,0,1,8.7,2.6l74.06,43c2.68,1.56,3.87,2.93,3.87,4.44s-1.27,2.9-4.1,4.53l-14.64,8.46c-3.29,1.9-6.32,2.16-9,.77l-5.24-2.45c-.84,9.15-8,17.67-21.31,25.36a68.48,68.48,0,0,1-33.2,9.25ZM735,175a15.19,15.19,0,0,0-7.38,2.38l-13.75,7.93c-3.31,1.91-3.54,3.09-3.53,3.4,0,.89,1.24,2.09,3.3,3.29l48.76,28.33c10.74,6.24,21.86,9.29,33.17,9a65.46,65.46,0,0,0,31.7-8.83c13.43-7.75,20.1-16.17,19.81-25L847,193l9.79,4.57c1.75.9,3.7.68,6-.67l14.65-8.46a7.45,7.45,0,0,0,2.51-1.91,17.14,17.14,0,0,0-2.3-1.61l-74-43a13.31,13.31,0,0,0-14.85.21l-13.55,7.83c-2.77,1.6-3.74,2.86-3.72,3.51,0,.88,1.24,2.08,3.3,3.28l46.4,27c5.19,3,7.55,6.59,7,10.61-.51,3.84-3.52,7.38-9,10.52a30.69,30.69,0,0,1-14.56,4.39A28.3,28.3,0,0,1,789.91,205l-47.67-27.7a15,15,0,0,0-7.16-2.27Z" transform="translate(0.5 0.5)"/><path class="cls-1" d="M647.79,216.18A67.68,67.68,0,0,1,680,207a61.31,61.31,0,0,1,33.17,8.78l50,29.08c2.67,1.55,4,3.06,4,4.54s-1.48,3.07-4.41,4.76L749,262.07a17.05,17.05,0,0,1-8.42,2.65,15.57,15.57,0,0,1-7.84-2.33l-48.21-28q-7.09-4.12-13.3-4.13t-13.36,4.13q-7.68,4.44-8.9,9.88t5.33,9.26l46.76,27.17q4,2.32,4.08,4.5c.06,1.44-1.45,3.05-4.49,4.81l-13.56,7.82a17.09,17.09,0,0,1-8.41,2.65,15.67,15.67,0,0,1-7.84-2.33L596.64,255c-2.07-1.2-3.09-2.22-3.08-3.07s1.1-1.9,3.29-3.17l14.66-8.46a10.64,10.64,0,0,1,4-1.48,7,7,0,0,1,3.83.74l6.92,3.39q-.15-6.67,5.19-13.54T647.79,216.18Z" transform="translate(0.5 0.5)"/><path class="cls-1" d="M678.71,302a17.15,17.15,0,0,1-8.63-2.54l-74.23-43.14c-2.68-1.56-3.88-2.92-3.87-4.44s1.22-2.87,4.09-4.53l14.65-8.46a12.46,12.46,0,0,1,4.63-1.68,8.59,8.59,0,0,1,4.69.89l4.78,2.34a24.58,24.58,0,0,1,5.4-12c3.66-4.71,9.3-9.29,16.78-13.61a69.52,69.52,0,0,1,32.92-9.41,63.07,63.07,0,0,1,34,9l50,29.08c3.21,1.86,4.77,3.79,4.77,5.9s-1.71,4.12-5.2,6.13l-13.73,7.92c-6.57,3.8-12,3.69-17.83.32l-48.21-28c-4.47-2.59-8.67-3.91-12.51-3.91s-8.07,1.32-12.57,3.91c-4.7,2.72-7.45,5.7-8.15,8.87-.65,2.9.85,5.37,4.59,7.55l46.75,27.17c3.2,1.86,4.79,3.75,4.87,5.8s-1.6,4.1-5.29,6.23l-13.55,7.83A18.73,18.73,0,0,1,678.71,302Zm-83.57-50a16.7,16.7,0,0,0,2.29,1.61l74.23,43.14a14.08,14.08,0,0,0,7.05,2.11,15.72,15.72,0,0,0,7.63-2.43l13.55-7.83c3.65-2.11,3.71-3.26,3.71-3.38,0-.31-.28-1.44-3.3-3.2l-46.76-27.17c-6.24-3.63-6.75-8-6.08-11,.91-4.06,4.16-7.73,9.66-10.91,5-2.87,9.74-4.33,14.14-4.33s9.14,1.46,14.09,4.34l48.22,28c4.85,2.82,9,2.93,14.67-.32L762,252.78c3.35-1.94,3.62-3.1,3.62-3.4s-.31-1.5-3.2-3.18l-50-29.08A60.11,60.11,0,0,0,680,208.56a66.29,66.29,0,0,0-31.44,9h0c-7.12,4.11-12.46,8.42-15.87,12.81s-5,8.49-4.86,12.54l.06,2.59L618.67,241a5.37,5.37,0,0,0-3-.6,9.29,9.29,0,0,0-3.41,1.28l-14.66,8.46A7.19,7.19,0,0,0,595.14,252Z" transform="translate(0.5 0.5)"/><path class="cls-1" d="M471.46,280.55a12.35,12.35,0,0,1,5.58-2,10.65,10.65,0,0,1,5.37,1.75l38.76,22.52Q522.68,290,541.75,279a67.58,67.58,0,0,1,32.18-9.21,61.25,61.25,0,0,1,33.16,8.78l50,29.08c2.67,1.55,4,3.06,4,4.55s-1.47,3.06-4.4,4.75L643,324.85a17,17,0,0,1-8.41,2.64,15.52,15.52,0,0,1-7.83-2.32l-48.22-28q-7.1-4.12-13.49-4a27.22,27.22,0,0,0-13.17,4q-7.5,4.34-8.82,9.83t5.25,9.31l46.76,27.17c2.67,1.55,4,3.05,4.08,4.49s-1.45,3.06-4.5,4.82l-13.55,7.82a17,17,0,0,1-8.41,2.64,15.55,15.55,0,0,1-7.84-2.32L454.21,296.62q-3.1-1.8-3.08-3.07c0-.84,1.1-1.9,3.29-3.17Z" transform="translate(0.5 0.5)"/><path class="cls-1" d="M572.67,364.81a17.11,17.11,0,0,1-8.63-2.54L453.42,298c-2.7-1.56-3.89-2.94-3.87-4.45s1.22-2.86,4.09-4.51l17-9.84A13.66,13.66,0,0,1,477,277a11.77,11.77,0,0,1,6.21,2L520,300.36c1.93-8.19,9-15.84,21-22.76a69.44,69.44,0,0,1,32.92-9.41,63.14,63.14,0,0,1,34,9l50,29.08c3.23,1.87,4.79,3.8,4.78,5.91s-1.7,4.1-5.2,6.12l-13.73,7.93c-6.56,3.78-12,3.68-17.83.31l-48.21-28a24.69,24.69,0,0,0-12.67-3.8,25.74,25.74,0,0,0-12.41,3.8c-4.59,2.65-7.31,5.63-8.07,8.84-.45,1.87-.46,4.69,4.51,7.58l46.76,27.17c3.18,1.85,4.77,3.74,4.86,5.79s-1.6,4.11-5.29,6.24L581.86,362A18.67,18.67,0,0,1,572.67,364.81Zm-120-71.16a15.09,15.09,0,0,0,2.29,1.61l110.62,64.29c4.87,2.82,9,2.93,14.67-.32l13.55-7.83c3.66-2.11,3.73-3.26,3.72-3.39,0-.3-.29-1.44-3.3-3.19L547.5,317.65c-6.25-3.63-6.71-8-6-11,1-4.09,4.19-7.74,9.57-10.84A28.82,28.82,0,0,1,565,291.56a27.82,27.82,0,0,1,14.3,4.23l48.22,28c4.86,2.82,9,2.93,14.66-.32l13.74-7.93c2.67-1.54,3.62-2.76,3.62-3.4,0-.4-.31-1.49-3.21-3.18l-50-29.08A60,60,0,0,0,574,271.34a66.39,66.39,0,0,0-31.45,9c-12.19,7-18.85,14.68-19.8,22.71l-.28,2.38L481.62,281.7a8.53,8.53,0,0,0-4.54-1.53,10.8,10.8,0,0,0-4.83,1.74l-17,9.84A7.26,7.26,0,0,0,452.71,293.65Z" transform="translate(0.5 0.5)"/><path class="cls-1" d="M415.06,348.43a130.26,130.26,0,0,1,45.55-16.18c3-.49,5.17-.39,6.39.32a3.9,3.9,0,0,1,1.62,2.22l3.6,9.3c.48,1.13.35,1.91-.38,2.33a11.07,11.07,0,0,1-3.65.85,94.75,94.75,0,0,0-15,3.8,78.28,78.28,0,0,0-14.09,6.24c-5.13,3-8.39,5.52-9.81,7.67s-.66,4.07,2.25,5.76q3.65,2.11,10,.85a181,181,0,0,0,19.19-5.5l13-4.12a142,142,0,0,1,20.84-4.66,47.81,47.81,0,0,1,15,.21,42.77,42.77,0,0,1,13.3,5.18q11.64,6.76,8.57,17.3T508,402.25a157.63,157.63,0,0,1-24.7,11.52,136.46,136.46,0,0,1-25.59,6.77c-3.05.5-5.11.43-6.21-.21a3.62,3.62,0,0,1-1.45-1.9l-4.87-10.26c-.48-1.13-.36-1.9.38-2.33a10.21,10.21,0,0,1,3.65-1,115.82,115.82,0,0,0,18.56-4.6,89.77,89.77,0,0,0,16.74-7.14c5.37-3.1,8.68-5.67,9.9-7.72s.45-3.87-2.34-5.5a12.44,12.44,0,0,0-6.93-1.37,43.6,43.6,0,0,0-9.59,1.74q-5.4,1.55-18.19,5.55-19.75,6.13-32.54,6.77a41.62,41.62,0,0,1-23.51-5.6q-12.91-7.51-8.76-17.71T415.06,348.43Z" transform="translate(0.5 0.5)"/><path class="cls-1" d="M454.31,422.44a7.08,7.08,0,0,1-3.57-.75,5.13,5.13,0,0,1-2.13-2.69l-4.82-10.15c-1.21-2.82.47-4.06,1-4.37a11.66,11.66,0,0,1,4.23-1.26,113.9,113.9,0,0,0,18.28-4.53,89.1,89.1,0,0,0,16.44-7c6.38-3.69,8.6-5.93,9.34-7.17a1.6,1.6,0,0,0,.31-1.29c-.16-.62-.91-1.34-2.09-2a11,11,0,0,0-6.06-1.16,42.49,42.49,0,0,0-9.24,1.69c-3.57,1-9.51,2.83-18.15,5.54-13.26,4.11-24.33,6.41-32.93,6.84a43.58,43.58,0,0,1-24.38-5.82c-9.36-5.44-12.53-12-9.43-19.67,2.95-7.2,10.52-14.25,23.15-21.54a132.32,132.32,0,0,1,46.09-16.37c3.5-.57,5.86-.41,7.43.51a5.32,5.32,0,0,1,2.32,3.07l3.58,9.25c1.17,2.7-.52,3.94-1.06,4.25a11.57,11.57,0,0,1-4.25,1.05,93.34,93.34,0,0,0-14.67,3.74,75.8,75.8,0,0,0-13.81,6.11c-6.09,3.51-8.41,5.83-9.28,7.16-.55.83-.44,1.29-.4,1.44.15.64.9,1.39,2.12,2.1,2.08,1.2,5.09,1.42,8.94.66a178.29,178.29,0,0,0,19-5.45l13-4.12a142.18,142.18,0,0,1,21.12-4.72,49.72,49.72,0,0,1,15.46.22,44.44,44.44,0,0,1,13.79,5.37c8.44,4.9,11.56,11.33,9.29,19.1-2.19,7.48-10.08,15.06-24.13,23.17a159.93,159.93,0,0,1-24.95,11.64A138.7,138.7,0,0,1,458,422.1,23,23,0,0,1,454.31,422.44Zm-7.81-15.3c0,.06.07.2.16.41l4.84,10.2a2.46,2.46,0,0,0,.82,1.22c.35.2,1.54.6,5.17,0a136.12,136.12,0,0,0,25.3-6.7,156.33,156.33,0,0,0,24.46-11.41c13.12-7.57,20.75-14.75,22.68-21.33,1.83-6.28-.73-11.35-7.85-15.48a41.15,41.15,0,0,0-12.81-5,46.44,46.44,0,0,0-14.47-.2,142.15,142.15,0,0,0-20.6,4.61l-12.94,4.11a178.18,178.18,0,0,1-19.37,5.54c-4.62.92-8.37.57-11.13-1-2.06-1.2-3.24-2.54-3.61-4.1a4.87,4.87,0,0,1,.84-3.89c1.56-2.38,4.94-5.05,10.34-8.16a79.6,79.6,0,0,1,14.37-6.37,97.15,97.15,0,0,1,15.24-3.87,12,12,0,0,0,3-.59c0-.07-.07-.21-.16-.4l-3.62-9.36a2.46,2.46,0,0,0-.94-1.43c-.5-.29-1.85-.69-5.35-.12a129.14,129.14,0,0,0-45,16l-.79-1.37.79,1.37c-11.84,6.83-19.18,13.56-21.81,20-2.45,6,.2,11.17,8.09,15.75a40.28,40.28,0,0,0,22.65,5.4c8.33-.41,19.14-2.67,32.14-6.7,8.66-2.72,14.63-4.54,18.23-5.56a45.2,45.2,0,0,1,9.94-1.8,14,14,0,0,1,7.8,1.58c2,1.17,3.17,2.47,3.56,4a4.72,4.72,0,0,1-.66,3.7c-1.37,2.28-4.79,5-10.46,8.27a92.29,92.29,0,0,1-17,7.26,116.28,116.28,0,0,1-18.81,4.66A9.42,9.42,0,0,0,446.5,407.14Z" transform="translate(0.5 0.5)"/><path class="cls-1" d="M345.67,393.74a16.78,16.78,0,0,1,8.5-2.59,16.2,16.2,0,0,1,7.93,2.38l71.5,41.55c2.67,1.56,4,3.07,4,4.55s-1.54,3.1-4.58,4.86l-13.56,7.83a16.46,16.46,0,0,1-8.32,2.59,15.94,15.94,0,0,1-7.75-2.38L331.88,411c-2.79-1.62-4.21-3.16-4.27-4.6s1.45-3.05,4.51-4.82Z" transform="translate(0.5 0.5)"/><path class="cls-1" d="M411.28,456.49h-.18a17.41,17.41,0,0,1-8.51-2.6l-71.51-41.55c-3.31-1.93-5-3.86-5-5.9s1.6-4.11,5.29-6.24l13.55-7.82a18.1,18.1,0,0,1,9.31-2.8,17.67,17.67,0,0,1,8.7,2.59l71.5,41.55c3.23,1.88,4.79,3.81,4.78,5.92s-1.72,4.11-5.38,6.22l-13.55,7.82A18.3,18.3,0,0,1,411.28,456.49ZM354,392.72a15.41,15.41,0,0,0-7.57,2.38l-13.56,7.83c-3.65,2.11-3.72,3.26-3.71,3.39,0,.31.29,1.45,3.48,3.3l71.5,41.55a14.47,14.47,0,0,0,7,2.17,14.65,14.65,0,0,0,7.51-2.39l13.56-7.82c3.61-2.09,3.8-3.29,3.8-3.51,0-.39-.31-1.49-3.21-3.17L361.3,394.89a14.64,14.64,0,0,0-7.15-2.16Z" transform="translate(0.5 0.5)"/><rect class="cls-1" x="470.95" y="344.86" width="3.15" height="10.71" transform="translate(0.1 1.04) rotate(-0.07)"/><rect class="cls-1" x="660.11" y="312.32" width="3.15" height="26.57"/><rect class="cls-1" x="531.01" y="376.91" width="3.15" height="26.57"/><rect class="cls-1" x="444.07" y="408.08" width="3.15" height="26.57"/><rect class="cls-1" x="598.04" y="348.6" width="3.15" height="45.39"/><rect class="cls-1" x="704.08" y="285.83" width="3.15" height="45.39"/><rect class="cls-1" x="766.09" y="250.36" width="3.15" height="26.57"/><path class="cls-1" d="M848.72,240" transform="translate(0.5 0.5)"/><g class="cls-3"><path class="cls-1" d="M319.28,444.15,239,397.48l69.15-255.22c.3-1.18.66-2.35,1.06-3.47.09-.24.18-.48.28-.71l.16-.38c.32-.83.59-1.52.9-2.19.14-.28.28-.55.43-.82l.21-.39c.37-.72.66-1.29,1-1.83q.27-.45.57-.87l.22-.33c.38-.58.73-1.1,1.11-1.61l.24-.33c.2-.25.4-.48.61-.71l.49-.58c.22-.26.44-.52.67-.77.39-.42.81-.82,1.23-1.22l.41-.39c.21-.2.41-.4.63-.59.53-.46,1.1-.9,1.67-1.33l.28-.22a5.93,5.93,0,0,1,.56-.43c.87-.63,1.78-1.21,2.74-1.77l52.08-30.07c3.25-1.87,5.72-2.26,7.57-1.19l77.48,45-1.58,2.72h0c-.36-.21-1.5-.49-4.41,1.2l-52.08,30.07c-.87.5-1.69,1-2.49,1.6l-.4.31-.36.28c-.51.39-1,.78-1.5,1.2l-.5.47-.32.31c-.46.43-.85.8-1.22,1.2-.19.2-.37.42-.55.63l-.23.28c-.35.4-.7.81-1,1.23s-.62.88-.92,1.33l-.32.48c-.16.23-.32.47-.47.72-.3.5-.57,1-.85,1.55l-.27.52c-.12.23-.25.45-.36.69-.29.63-.55,1.3-.81,2l-.19.48a5.25,5.25,0,0,0-.22.55c-.37,1-.7,2.11-1,3.22ZM242.66,396l74.66,43.39,68.3-252.08c.3-1.18.66-2.34,1.06-3.47.09-.25.18-.48.28-.71l.16-.38c.29-.75.57-1.48.9-2.18.14-.29.29-.57.44-.85l.19-.37c.36-.68.66-1.27,1-1.82.17-.3.37-.59.56-.87l.22-.33c.42-.63.76-1.13,1.12-1.61s.75-.93,1.13-1.38l.22-.25c.21-.26.43-.52.66-.76.41-.44.85-.86,1.29-1.27l.35-.35c.2-.2.41-.39.62-.58.54-.47,1.11-.9,1.68-1.34l.28-.22c.18-.15.36-.29.56-.43.87-.62,1.78-1.21,2.73-1.76l52.09-30.07a17.89,17.89,0,0,1,1.78-.92L381.67,92.79c-.35-.21-1.48-.5-4.41,1.19l-52.09,30.07c-.86.5-1.69,1-2.48,1.6l-.76.59c-.51.4-1,.78-1.51,1.2-.17.15-.33.32-.5.48l-.31.3c-.5.47-.87.83-1.22,1.2-.2.21-.38.43-.56.65l-.56.64c-.16.18-.33.36-.48.56l-.22.31c-.33.44-.64.91-.95,1.38l-.27.41c-.17.24-.33.48-.48.73-.29.48-.56,1-.82,1.5l-.31.59c-.12.22-.24.44-.34.66-.28.6-.53,1.23-.78,1.87l-.24.59c-.07.17-.14.34-.21.53-.37,1-.7,2.11-1,3.22Z" transform="translate(0.5 0.5)"/><path class="cls-1" d="M290.57,568.34l-77.47-45a7.11,7.11,0,0,1-.83-.56l-.27-.22c-.18-.14-.35-.29-.53-.46l-.3-.29c-.15-.16-.3-.31-.45-.48l-2.39-3.48-1.21-2.41L96.44,270.6A23.57,23.57,0,0,1,95,262.72a19,19,0,0,1,.11-2l0-.39a18.32,18.32,0,0,1,.35-1.85l.09-.34c.17-.59.36-1.16.58-1.72a14.92,14.92,0,0,1,.89-1.79l.19-.33c.3-.47.6-.93.94-1.37l.36-.42c.42-.48.75-.84,1.11-1.19l.5-.46q.53-.48,1.11-.93l.51-.38a21.44,21.44,0,0,1,1.8-1.17l52.08-30.07c4.5-2.6,8-3.43,10.64-2.53a7.42,7.42,0,0,1,1.43.66l77.48,45h0l-1.58,2.73h0a4.45,4.45,0,0,0-.86-.39c-1.19-.4-3.55-.33-8,2.27L182.6,296.12c-.55.32-1,.65-1.54,1l-.28.22c-.47.36-.78.61-1.07.87l-.41.39a10.85,10.85,0,0,0-.8.86l-1.51-.67,1.23,1a10.47,10.47,0,0,0-.83,1.18,12.93,12.93,0,0,0-.82,1.57,14.74,14.74,0,0,0-.49,1.46,13.16,13.16,0,0,0-.35,1.76l-1.6.15,1.56.17c-.05.54-.09,1.1-.09,1.67a20.14,20.14,0,0,0,1.24,6.71L287.46,559.14c.17.38.35.73.52,1.07l2.34,3.75-.3.42.22.13.31-.27.89.86-.05.07,0,0,.06-.07.12.11a5.34,5.34,0,0,0,.56.39h0ZM213.64,519.8c.11.11.23.2.35.3a5.34,5.34,0,0,0,.69.49l70.43,40.93c-.17-.34-.34-.7-.52-1.08L173.91,315.62a23.53,23.53,0,0,1-1.46-7.87,19.08,19.08,0,0,1,.11-2l0-.38a15.68,15.68,0,0,1,.35-1.86l.09-.34a14.33,14.33,0,0,1,.58-1.71,13.73,13.73,0,0,1,.89-1.8l.2-.34a13.41,13.41,0,0,1,1-1.49l.26-.3c.39-.46.72-.82,1.08-1.17l.5-.47c.35-.31.73-.62,1.12-.92l.5-.39a21.44,21.44,0,0,1,1.8-1.17l52.09-30.07a25.62,25.62,0,0,1,5-2.31l-72-41.86a4.45,4.45,0,0,0-.86-.39c-1.19-.4-3.55-.33-8.06,2.27L105.12,251.1a15.52,15.52,0,0,0-1.53,1l-.29.21c-.46.36-.77.62-1.07.88l-.4.38a11,11,0,0,0-.81.87l-1.51-.67,1.23,1a10.47,10.47,0,0,0-.83,1.18,12,12,0,0,0-.81,1.57,12.58,12.58,0,0,0-.5,1.45,15.09,15.09,0,0,0-.35,1.77l-1.6.15,1.57.16a15.28,15.28,0,0,0-.1,1.67,20.4,20.4,0,0,0,1.24,6.72L210.4,515l2.44,4-.94,1.32,1.18-1,.33.35-.86,1.37Z" transform="translate(0.5 0.5)"/><path class="cls-1" d="M453.94,137.64q7.81-4.51,7.84,4a37.17,37.17,0,0,1-1.28,8.73L352,521.7q-3,10.24-6.7,15.36a33.34,33.34,0,0,1-10.62,9.13L303,564.48c-4.63,2.67-8.11,3.69-10.43,3s-4.5-3.22-6.54-7.71L175.35,315a21.83,21.83,0,0,1-1.33-7.23q0-8.46,7.79-13l52.08-30.07q6.08-3.51,9.35-2.4t5,5.6L318.3,441.75l68.84-254q3.44-13.45,14.72-20Z" transform="translate(0.5 0.5)"/><path class="cls-1" d="M294.08,569.27a6.69,6.69,0,0,1-1.94-.26c-2.81-.78-5.29-3.59-7.55-8.57L173.91,315.62a23.53,23.53,0,0,1-1.46-7.87c0-6.23,2.86-11.06,8.57-14.36l52.09-30.07c4.49-2.59,8-3.42,10.63-2.52s4.64,3.08,6,6.51L318,436.81l67.61-249.53c2.38-9.34,7.58-16.39,15.45-20.93l52.09-30.07c3.24-1.87,5.71-2.27,7.55-1.2s2.64,3.15,2.65,6.52a39.94,39.94,0,0,1-1.32,9.12L353.51,522.14c-2.05,7-4.38,12.29-6.93,15.83a34.83,34.83,0,0,1-11.11,9.58l-31.68,18.29C299.81,568.14,296.61,569.27,294.08,569.27ZM241.51,263.6c-1.38,0-3.53.55-6.83,2.45L182.6,296.12c-4.73,2.73-7,6.53-7,11.62a20.14,20.14,0,0,0,1.24,6.71L287.46,559.14c2.28,5,4.27,6.49,5.54,6.84s3.94.18,9.21-2.87l31.68-18.29A31.76,31.76,0,0,0,344,536.14c2.34-3.26,4.52-8.26,6.47-14.88L459,149.9a35.63,35.63,0,0,0,1.21-8.29c0-2-.39-3.42-1.06-3.8-.35-.2-1.48-.49-4.41,1.2l-52.08,30.07c-7.11,4.1-11.81,10.5-14,19l-70.08,258.6-71.8-178.21c-1-2.55-2.36-4.12-4.06-4.7A3.74,3.74,0,0,0,241.51,263.6Z" transform="translate(0.5 0.5)"/><line class="cls-1" x1="97.39" y1="258.97" x2="174.52" y2="304.18"/><rect class="cls-1" x="133.88" y="236.37" width="3.15" height="89.4" transform="translate(-175.03 256.3) rotate(-59.62)"/><line class="cls-1" x1="315.9" y1="130.75" x2="393.03" y2="175.96"/><rect class="cls-1" x="352.39" y="108.15" width="3.15" height="89.4" transform="translate(43.6 381.43) rotate(-59.62)"/></g><path class="cls-1" d="M472.63,537.9a3,3,0,0,1,2.1-.62c.44.15.66.81.66,2l0,8.27a4.79,4.79,0,0,1-.64,2.71,6,6,0,0,1-2.1,1.81l-4.57,2.64c-1,.56-1.67.78-2.1.61s-.64-.81-.64-2l0-8.26a4.88,4.88,0,0,1,.62-2.7,6.22,6.22,0,0,1,2.1-1.81Z" transform="translate(0.5 0.5)"/><path class="cls-1" d="M459.72,563.85c5.1-2.94,9-3.92,11.82-2.93s4.15,3.81,4.17,8.42l.05,20.08a5.17,5.17,0,0,1-.62,2.63,5.67,5.67,0,0,1-2.17,2l-4.57,2.64c-1,.56-1.67.72-2.09.46s-.65-.87-.65-1.9l-.06-20q0-6.45-5.86-3.07a10.66,10.66,0,0,0-5.82,9.82v5.93a12,12,0,0,1,4.69-5.36l2.12-1.22c.45-.26.76-.33.95-.24s.28.42.28.92v5.39a3.08,3.08,0,0,1-.3,1.48,2.49,2.49,0,0,1-1,.93l-2.37,1.37a8.22,8.22,0,0,0-3.18,3.59,11,11,0,0,0-1.19,5V602a5.31,5.31,0,0,1-.6,2.62,5.39,5.39,0,0,1-2.14,2l-4.57,2.64c-1,.56-1.67.72-2.08.46s-.65-.87-.66-1.9l-.05-20.08A23.44,23.44,0,0,1,448,574.54,34.08,34.08,0,0,1,459.72,563.85Z" transform="translate(0.5 0.5)"/><path class="cls-1" d="M533.82,621.65q6.33-3.66,9.72-.5c2.26,2.11,3.4,6.08,3.42,12a34.38,34.38,0,0,1-4.13,17.14,31.28,31.28,0,0,1-12,12c-3.82,2.2-6.77,3.1-8.84,2.66s-3.62-2.19-4.64-5.25l-3.58-10.76a5.12,5.12,0,0,1-.24-1.13,3,3,0,0,1,1.1-2.1l5.58-5.4c.58-.51.92-.79,1-.87a.73.73,0,0,1,.8,0,3.32,3.32,0,0,1,.61,1l3.92,11.77c.46,1.37,1,2.18,1.67,2.43s1.73,0,3.22-.91a9.5,9.5,0,0,0,4.25-5.27,28.46,28.46,0,0,0,1.25-9.54c0-3.74-.41-6.19-1.21-7.41s-2.09-1.28-3.92-.22a8.53,8.53,0,0,0-1.89,1.55c-.61.66-1,1-1.15,1.2-.32.27-.54.43-.61.48-.41.23-.74.11-1-.41l-1.55-4.08a3.11,3.11,0,0,1-.12-.63,2.73,2.73,0,0,1,.66-1.38A29.2,29.2,0,0,1,533.82,621.65Z" transform="translate(0.5 0.5)"/><path class="cls-1" d="M497.9,625c.93-.54,1.6-.72,2-.53s.58.87.58,2v3.22c2-1.44,4.33-3,7-4.82s4.78-3.12,6.25-4c1-.56,1.62-.72,2-.5s.48.88.49,1.89v2.38a5.14,5.14,0,0,1-.47,2.45,4.84,4.84,0,0,1-1.94,1.76L497,638.55c-1.71,1-2.9,1.24-3.57.76s-1-1.67-1-3.58l0-4.62a5.22,5.22,0,0,1,.57-2.67,5.88,5.88,0,0,1,2.05-1.78Z" transform="translate(0.5 0.5)"/><path class="cls-1" d="M499.44,608.56c.81-.47,1.36-.59,1.67-.37s.47.76.47,1.65v2.87l1.28-.88c.61-.39,1.71-1.13,3.3-2.18s2.9-1.89,3.87-2.46c.67-.38,1.1-.48,1.31-.32s.35.57.35,1.27v3.14a4.19,4.19,0,0,1-.43,2.05,3.94,3.94,0,0,1-1.52,1.4l-11.13,6.42c-1.07.61-1.75.8-2.07.58s-.51-.93-.51-2.11v-2l-1.94,1.12c-.72.41-1.24.55-1.53.36s-.42-.71-.42-1.56v-2.43a4.42,4.42,0,0,1,.41-2,3.9,3.9,0,0,1,1.53-1.44Z" transform="translate(0.5 0.5)"/><path class="cls-1" d="M489.19,546.84c4.42-2.55,7.71-3.34,9.88-2.33s3.23,3.82,3.25,8.49l.06,21.34a4.5,4.5,0,0,1-2.42,4.13l-5.18,3c-1.64.95-2.45.5-2.45-1.31l-.06-20.73c0-2.19-.36-3.54-1-4s-1.91-.27-3.66.74a20.06,20.06,0,0,0-5.3,4.61,4.22,4.22,0,0,1-.91.86c-.4.23-.67.12-.79-.37l-1.35-4.62-.13-.78a2.11,2.11,0,0,1,.72-1.38A37.55,37.55,0,0,1,489.19,546.84Z" transform="translate(0.5 0.5)"/><path class="cls-1" d="M517.43,530.53c2.81-1.62,5.13-2.38,7-2.25a.7.7,0,0,1,.74.75,5.51,5.51,0,0,1-.12.84l-1.09,4.35a2.05,2.05,0,0,1-.79,1.22.77.77,0,0,1-.54.11,4.39,4.39,0,0,0-1.1,0,5.38,5.38,0,0,0-1.22.54,5.94,5.94,0,0,0-2.28,2.33,6.7,6.7,0,0,0-.82,3.25c0,1.38.35,2.22,1.05,2.48s1.76,0,3.22-.89l1.3-.75c.43-.25.75-.31,1-.21s.31.42.31.94v3.51a2.59,2.59,0,0,1-1.4,2.4l-1,.61a9.42,9.42,0,0,0-3.35,3,7.22,7.22,0,0,0-1,4c0,3,2.08,3.29,6.23.89a12.42,12.42,0,0,0,4.93-4.81,14.9,14.9,0,0,0,1.51-7.12l-.06-18.18a5.56,5.56,0,0,1,.63-2.68,5.44,5.44,0,0,1,2.1-2l4.39-2.54c1-.58,1.74-.76,2.16-.48s.65.91.65,1.94l0,18.18q0,16.51-16.33,26c-4.87,2.81-8.78,4-11.7,3.69s-4.4-2.51-4.41-6.52A15.49,15.49,0,0,1,511.77,552a3.87,3.87,0,0,1-3.18-1.45,7,7,0,0,1-1-4.3,14.9,14.9,0,0,1,1.24-5.77,20.82,20.82,0,0,1,3.51-5.67A20.43,20.43,0,0,1,517.43,530.53Z" transform="translate(0.5 0.5)"/><path class="cls-1" d="M570.67,487.32c1-.57,1.67-.72,2.05-.48s.58.9.59,2V491a5.16,5.16,0,0,1-.57,2.56,5.21,5.21,0,0,1-2,1.89l-22.22,12.83c-1,.56-1.64.71-2,.49s-.56-.88-.56-1.95v-2.17a5.53,5.53,0,0,1,.55-2.64,5.11,5.11,0,0,1,2-1.85Z" transform="translate(0.5 0.5)"/><path class="cls-1" d="M556.9,507.75q8.76-5.07,13.32-2.79t4.57,12a31.72,31.72,0,0,1-4.62,17.13,36.77,36.77,0,0,1-13.29,12.56,32.87,32.87,0,0,1-7,3.18,15.47,15.47,0,0,1-5.5.66c-.55,0-.8-.31-.8-.87a4.3,4.3,0,0,1,.3-1.31L546,543a2.72,2.72,0,0,1,.91-1.44,3.2,3.2,0,0,1,1-.17,14.87,14.87,0,0,0,3.73-.58,17.62,17.62,0,0,0,13.11-18c0-4-.78-6.39-2.27-7.24s-3.75-.44-6.72,1.27a27.45,27.45,0,0,0-7.6,6.5,3.84,3.84,0,0,1-1,1c-.38.22-.7.12-1-.34l-2-3a1.77,1.77,0,0,1-.31-1,2.75,2.75,0,0,1,.79-1.71,47.92,47.92,0,0,1,5.46-5.72A42.65,42.65,0,0,1,556.9,507.75Z" transform="translate(0.5 0.5)"/><path class="cls-1" d="M609.08,478.68c1-.59,1.74-.76,2.16-.49s.65.91.65,1.94l0,8.39,1.33-.77c.77-.44,1.31-.51,1.62-.23a3,3,0,0,1,.45,2v2.32a5.79,5.79,0,0,1-.48,2.53,4,4,0,0,1-1.63,1.63l-1.28.73v3.58a23.3,23.3,0,0,1-4,13.12,35.18,35.18,0,0,1-12.09,10.77q-8,4.64-12.09,3.19t-4.07-8.45l-.06-20.14a5.53,5.53,0,0,1,.62-2.68,5.38,5.38,0,0,1,2.1-2l4.57-2.64c1-.59,1.73-.74,2.14-.51s.62.93.62,2l.06,20.22c0,2.09.51,3.35,1.52,3.78s2.54,0,4.57-1.13a12.89,12.89,0,0,0,4.55-4.14,10.16,10.16,0,0,0,1.47-5.51v-3.65l-3.11,1.79c-.77.45-1.33.54-1.65.28a2.7,2.7,0,0,1-.49-2v-2.32a6,6,0,0,1,.46-2.5,4,4,0,0,1,1.67-1.67l3.11-1.79,0-8.39a5.26,5.26,0,0,1,.62-2.68,5.46,5.46,0,0,1,2.1-2Z" transform="translate(0.5 0.5)"/><path class="cls-1" d="M667.9,485c1-.56,1.65-.71,2.07-.45s.61.88.61,1.92l0,9.65a5,5,0,0,1-.59,2.57,5.12,5.12,0,0,1-2,1.88l-3,1.72c-1,.56-1.66.73-2,.47s-.6-.86-.6-1.89l0-4.75-2.06,1.19c-.72.42-1.23.54-1.5.37s-.4-.68-.4-1.53v-3.43a4.34,4.34,0,0,1,.39-1.94,3.79,3.79,0,0,1,1.44-1.35Z" transform="translate(0.5 0.5)"/><path class="cls-1" d="M634.53,462.92q8.44-4.87,12-2.73t3.54,9.4l0,9.74c0,1.92.33,3.11,1,3.57s1.84.24,3.49-.72a12.1,12.1,0,0,0,4.24-4.12,9.49,9.49,0,0,0,1.66-5l-.06-20.91a5.53,5.53,0,0,1,.62-2.68,5.38,5.38,0,0,1,2.1-2l4.57-2.64q1.53-.88,2.16-.48c.43.27.65.91.65,1.94l0,31a4.4,4.4,0,0,1-2.31,4.07L664,483.74c-1.13.65-1.73.46-1.77-.6l-.13-2.24a29.68,29.68,0,0,1-4.43,6.29,27.34,27.34,0,0,1-6.27,4.88q-5.34,3.07-8.41,1.52c-2-1.06-3-3.74-3.06-8.08l0-10.35c0-2.44-.41-4-1.19-4.61s-2.2-.39-4.26.8a20,20,0,0,0-6.51,6.22l.73,1.26a4.89,4.89,0,0,1,.62,1.54,9.74,9.74,0,0,1,.2,2.12l0,10.7c0,.71.09,1.13.27,1.29s.51.09,1-.2l1-.6c.73-.42,1.24-.53,1.53-.34s.43.66.43,1.46v4.12a3.41,3.41,0,0,1-.6,2.21,9.91,9.91,0,0,1-2.57,1.87l-7.36,4.25c-1.47.85-2.46,1.07-3,.71s-.8-1.34-.8-2.87l-.06-18.61-1.41-3.12a5.38,5.38,0,0,1-.56-2,4.47,4.47,0,0,1,.91-2.49A58.48,58.48,0,0,1,625.5,470,41.63,41.63,0,0,1,634.53,462.92Z" transform="translate(0.5 0.5)"/><path class="cls-1" d="M692.79,429.29q8.52-4.92,12.33-2.88t3.79,9.2l.05,19.17a5.16,5.16,0,0,1-.62,2.64,5.77,5.77,0,0,1-2.16,2l-4.51,2.6c-1,.58-1.73.75-2.16.5s-.65-.86-.65-1.9l-.06-19.44c0-2.33-.48-3.8-1.43-4.4s-2.51-.28-4.61.94a20.46,20.46,0,0,0-6.75,6.36l.74,1.25a5.17,5.17,0,0,1,.61,1.55,10.6,10.6,0,0,1,.19,2.12l.05,18.12a5.18,5.18,0,0,1-.64,2.65,5.62,5.62,0,0,1-2.16,2l-4.51,2.6c-1,.59-1.72.75-2.12.49s-.62-.89-.62-1.92L677.49,453l-1.41-3.12a6,6,0,0,1-.55-2,4.63,4.63,0,0,1,.9-2.48,58.39,58.39,0,0,1,7.14-8.86A42.13,42.13,0,0,1,692.79,429.29Z" transform="translate(0.5 0.5)"/><path class="cls-1" d="M728.84,408.48a35.59,35.59,0,0,1,6.72-3.18,15.91,15.91,0,0,1,5.35-.85c.72,0,1.1.27,1.1.83a4.33,4.33,0,0,1-.3,1.23l-2,4.91a2.7,2.7,0,0,1-.79,1.31,1.93,1.93,0,0,1-.9.16,10.48,10.48,0,0,0-3.67.61,22.64,22.64,0,0,0-4.32,2,16.22,16.22,0,0,0-4.11,3.1,4.92,4.92,0,0,0-1.29,3.31,1.55,1.55,0,0,0,1.55,1.79,26.86,26.86,0,0,0,5.41-.49l2.25-.39a18.25,18.25,0,0,1,5.23-.25,3.72,3.72,0,0,1,2.77,1.63,8.08,8.08,0,0,1,.85,4.16,17.25,17.25,0,0,1-3.66,10.11,32.91,32.91,0,0,1-10.49,9.08c-5.36,3.09-9.86,4.63-13.46,4.6-.77,0-1.17-.26-1.17-.73a3.29,3.29,0,0,1,.25-1.06l2.11-5.83a2.25,2.25,0,0,1,.68-1,3.43,3.43,0,0,1,1-.16,15.51,15.51,0,0,0,4.45-.75,21.73,21.73,0,0,0,4.95-2.09,15.85,15.85,0,0,0,4-3,4.81,4.81,0,0,0,1.32-3.31,1.68,1.68,0,0,0-.85-1.68,4.68,4.68,0,0,0-2.41-.27c-1,.13-2.67.36-4.92.77-3.27.59-5.7.52-7.26-.26s-2.31-2.51-2.32-5.28a16.92,16.92,0,0,1,3.76-10.17A32.65,32.65,0,0,1,728.84,408.48Z" transform="translate(0.5 0.5)"/><path class="cls-1" d="M761.29,389.74a35.62,35.62,0,0,1,6.75-3.19,16.12,16.12,0,0,1,5.32-.84c.72,0,1.1.27,1.1.83a4,4,0,0,1-.3,1.23l-1.95,4.91a2.63,2.63,0,0,1-.79,1.31,1.89,1.89,0,0,1-.9.17,10.52,10.52,0,0,0-3.67.61,21.9,21.9,0,0,0-4.31,2,16.53,16.53,0,0,0-4.12,3.1,4.92,4.92,0,0,0-1.29,3.31c0,1.12.51,1.71,1.56,1.79a26.83,26.83,0,0,0,5.4-.49l2.25-.39a18.7,18.7,0,0,1,5.24-.25,3.7,3.7,0,0,1,2.76,1.64,8.15,8.15,0,0,1,.86,4.16,17.26,17.26,0,0,1-3.67,10.1A32.7,32.7,0,0,1,761,428.79q-8,4.63-13.46,4.6c-.77,0-1.17-.25-1.17-.73a3.18,3.18,0,0,1,.25-1.05l2.11-5.83a2.37,2.37,0,0,1,.68-1,3.94,3.94,0,0,1,1-.16,15.75,15.75,0,0,0,4.44-.74,22.19,22.19,0,0,0,5-2.09,15.9,15.9,0,0,0,4-3,4.85,4.85,0,0,0,1.33-3.31,1.71,1.71,0,0,0-.86-1.68,4.58,4.58,0,0,0-2.41-.26c-1,.11-2.66.36-4.91.76-3.28.59-5.71.53-7.26-.25s-2.31-2.52-2.32-5.29a16.93,16.93,0,0,1,3.75-10.17A32.65,32.65,0,0,1,761.29,389.74Z" transform="translate(0.5 0.5)"/><path class="cls-1" d="M808.92,363.3c1-.56,1.68-.72,2.09-.44s.65.9.65,1.94l.07,21.54a21.51,21.51,0,0,1-3.27,11.7,24.69,24.69,0,0,1-8.69,8.39q-7.37,4.24-11.29,1.53l-.1,2.37a3.13,3.13,0,0,1-1.77,2.64l-4.19,2.42c-1.55.9-2.33.43-2.33-1.39L780,383.08a4.93,4.93,0,0,1,2.8-4.7l4.49-2.6c1-.59,1.73-.75,2.14-.51s.62.93.62,2l.06,20.91a2.73,2.73,0,0,0,1.92,2.93,5.75,5.75,0,0,0,4.55-.91,10.28,10.28,0,0,0,3.79-3.51,9.07,9.07,0,0,0,1.25-4.86l-.06-21.2a4.87,4.87,0,0,1,2.8-4.7Z" transform="translate(0.5 0.5)"/><path class="cls-1" d="M847.51,381.31q1.46-.84,2.07-.45c.42.23.62.88.62,1.92l0,9.64a4.5,4.5,0,0,1-2.62,4.45l-3,1.73c-1,.56-1.66.72-2,.47s-.58-.87-.58-1.9v-4.75l-2.09,1.2c-.72.42-1.22.54-1.47.36s-.4-.68-.4-1.53V389a4,4,0,0,1,.39-1.94,3.49,3.49,0,0,1,1.42-1.34Z" transform="translate(0.5 0.5)"/><path class="cls-1" d="M847.33,341.12c1-.59,1.74-.76,2.17-.49s.64.92.64,1.95l.06,20.15a23.32,23.32,0,0,1-4,13.12,35.07,35.07,0,0,1-12.07,10.75q-8,4.65-12.09,3.2t-4.1-8.44l0-20.14a5.25,5.25,0,0,1,.64-2.69,5.38,5.38,0,0,1,2.1-2l4.57-2.64c1-.58,1.72-.75,2.12-.5s.61.93.62,2l.05,20.23c0,2.09.52,3.34,1.55,3.76s2.54.05,4.57-1.12a12.77,12.77,0,0,0,4.52-4.13,10.08,10.08,0,0,0,1.48-5.51L840,348.42a4.93,4.93,0,0,1,2.72-4.66Z" transform="translate(0.5 0.5)"/><path class="cls-1" d="M880.28,321q4.74-2.75,7.13-1.38c1.59.9,2.38,2.95,2.39,6.11l.07,24.56a5.1,5.1,0,0,1-.64,2.65,5.66,5.66,0,0,1-2.15,2l-4.57,2.63c-1,.56-1.67.72-2.11.47s-.63-.87-.63-1.9l-.07-23a3,3,0,0,0-.6-2.2c-.38-.36-1.06-.27-2,.29a6.79,6.79,0,0,0-2.68,3.24,3.31,3.31,0,0,1-1.22,1.47,1,1,0,0,1-1.28,0,3.33,3.33,0,0,0-1.06-.65,1.56,1.56,0,0,0-1.24.29c-1.39.8-2.48,2.46-3.27,4.94a33.58,33.58,0,0,0-1.16,9.88c0,3.37.47,5.73,1.38,7.14s2.2,1.6,3.89.63a14,14,0,0,0,3-2.37c.25-.23.39-.37.43-.39.41-.24.67-.05.79.53l.88,3.84a2.14,2.14,0,0,1,.06.53,2.91,2.91,0,0,1-.92,1.58,29.13,29.13,0,0,1-6.58,5.06c-4.13,2.39-7.3,2.54-9.54.48s-3.33-5.81-3.34-11.27a44.39,44.39,0,0,1,1.51-12.05,31.82,31.82,0,0,1,4.31-9.56,19.86,19.86,0,0,1,6.36-6.1q3.82-2.21,5.85,0a15.92,15.92,0,0,1,2.95-4.16A18.29,18.29,0,0,1,880.28,321Z" transform="translate(0.5 0.5)"/><path class="cls-1" d="M909.75,304a35.45,35.45,0,0,1,6.73-3.18,15.86,15.86,0,0,1,5.32-.84c.74,0,1.1.27,1.1.83a4,4,0,0,1-.3,1.23l-1.93,4.9a2.83,2.83,0,0,1-.79,1.31,1.91,1.91,0,0,1-.92.17,11,11,0,0,0-3.65.6,22.85,22.85,0,0,0-4.33,2,16,16,0,0,0-4.1,3.09,4.89,4.89,0,0,0-1.31,3.32,1.57,1.57,0,0,0,1.56,1.79,27.5,27.5,0,0,0,5.4-.49l2.25-.39a18.32,18.32,0,0,1,5.24-.25,3.72,3.72,0,0,1,2.76,1.63,8.22,8.22,0,0,1,.86,4.17A17.26,17.26,0,0,1,920,334a32.82,32.82,0,0,1-10.49,9.08q-8,4.64-13.46,4.6c-.77,0-1.17-.25-1.17-.73a3.18,3.18,0,0,1,.25-1l2.11-5.84a2.32,2.32,0,0,1,.68-1,3.14,3.14,0,0,1,1-.16,15.4,15.4,0,0,0,4.46-.76,21.48,21.48,0,0,0,4.93-2.08,15.66,15.66,0,0,0,4-3,4.78,4.78,0,0,0,1.34-3.32,1.64,1.64,0,0,0-.87-1.67,4.67,4.67,0,0,0-2.41-.27c-1,.12-2.66.36-4.9.76-3.29.6-5.72.53-7.25-.26s-2.33-2.5-2.34-5.27a16.91,16.91,0,0,1,3.75-10.17A32.66,32.66,0,0,1,909.75,304Z" transform="translate(0.5 0.5)"/><path class="cls-1" d="M460,664.3c5.1-2.95,9-3.95,11.82-2.94s4.15,3.81,4.17,8.42l.05,20.08a5.17,5.17,0,0,1-.62,2.63,5.67,5.67,0,0,1-2.17,2l-4.57,2.64c-1,.56-1.67.72-2.09.46s-.65-.86-.65-1.9l-.06-20c0-4.27-2-5.3-5.86-3a10.68,10.68,0,0,0-5.83,9.8l0,6a11.77,11.77,0,0,1,4.69-5.35l2.12-1.23c.45-.26.75-.33.95-.24s.27.4.28.92v5.39a3.19,3.19,0,0,1-.3,1.48,2.49,2.49,0,0,1-1,.93l-2.37,1.37a8.19,8.19,0,0,0-3.18,3.6,10.82,10.82,0,0,0-1.19,5v2.23a5.49,5.49,0,0,1-.6,2.63,5.59,5.59,0,0,1-2.14,2l-4.57,2.64c-1,.56-1.67.72-2.09.46s-.65-.86-.65-1.9l-.06-20.08A23.53,23.53,0,0,1,448.19,675,33.77,33.77,0,0,1,460,664.3Z" transform="translate(0.5 0.5)"/><path class="cls-1" d="M495.88,643.56a35.4,35.4,0,0,1,6.73-3.18,15.3,15.3,0,0,1,5.32-.85c.74,0,1.1.28,1.11.84a4.2,4.2,0,0,1-.31,1.23l-1.93,4.9a2.68,2.68,0,0,1-.79,1.3,1.89,1.89,0,0,1-.91.18,10.24,10.24,0,0,0-3.66.6,23.11,23.11,0,0,0-4.32,1.95,16.22,16.22,0,0,0-4.11,3.13A5,5,0,0,0,491.7,657a1.57,1.57,0,0,0,1.58,1.78,26.43,26.43,0,0,0,5.38-.48l2.27-.4a18,18,0,0,1,5.24-.25,3.63,3.63,0,0,1,2.74,1.62,8,8,0,0,1,.88,4.17,17.39,17.39,0,0,1-3.67,10.1,32.72,32.72,0,0,1-10.49,9.06c-5.36,3.1-9.86,4.66-13.48,4.64-.77,0-1.15-.27-1.15-.74a3.12,3.12,0,0,1,.23-1.05l2.13-5.84a2.1,2.1,0,0,1,.66-1,3.09,3.09,0,0,1,1.05-.17,16.7,16.7,0,0,0,4.44-.75,23,23,0,0,0,4.93-2.08,15.49,15.49,0,0,0,3.95-3,4.8,4.8,0,0,0,1.34-3.32,1.7,1.7,0,0,0-.85-1.68,4.7,4.7,0,0,0-2.41-.26c-1,.11-2.68.37-4.91.77-3.3.6-5.71.5-7.26-.26s-2.33-2.52-2.34-5.27a17,17,0,0,1,3.75-10.2A33.08,33.08,0,0,1,495.88,643.56Z" transform="translate(0.5 0.5)"/><path class="cls-1" d="M580.54,560c1-.56,1.67-.73,2.1-.57s.64.86.64,2l0,5.75a5.05,5.05,0,0,1-.63,2.74,6,6,0,0,1-2.1,1.83L578,573.25c-1,.56-1.66.74-2.07.57s-.62-.87-.62-2l0-5.75a5.26,5.26,0,0,1,.61-2.73,5.79,5.79,0,0,1,2.06-1.83Z" transform="translate(0.5 0.5)"/><path class="cls-1" d="M580.94,575.24c.81-.47,1.42-.63,1.8-.48s.58.74.58,1.78l0,8.45a6.86,6.86,0,0,1-.63,3.27,6.44,6.44,0,0,1-2.53,2.27L558.53,603c-1,.57-1.66.73-2,.5s-.56-.87-.56-1.95v-2.17a5.55,5.55,0,0,1,.55-2.63,4.91,4.91,0,0,1,2-1.87l16.8-9.69v-4.05a4.36,4.36,0,0,1,.58-2.45,5.09,5.09,0,0,1,1.78-1.59Z" transform="translate(0.5 0.5)"/><path class="cls-1" d="M571.45,599.93c3.59-2.08,6.51-2.65,8.71-1.68s3.31,3.64,3.32,8l.06,21.55a5.18,5.18,0,0,1-.64,2.65,5.5,5.5,0,0,1-2.1,2L576.23,635c-1,.59-1.73.75-2.16.51s-.63-.88-.64-1.91l-.06-21.2c0-1.92-.44-3.06-1.27-3.47s-2.1-.13-3.81.86a13.4,13.4,0,0,0-4.67,4.39,9.29,9.29,0,0,0-1.75,5.13l.06,20.93a5.38,5.38,0,0,1-.61,2.63,5.48,5.48,0,0,1-2.13,2l-4.5,2.6c-1,.59-1.74.76-2.18.51s-.63-.87-.63-1.91l-.09-31a4.34,4.34,0,0,1,2.29-4l4.21-2.43a1.86,1.86,0,0,1,1.28-.37c.29.11.45.45.49,1l.13,2.16A28.85,28.85,0,0,1,571.45,599.93Z" transform="translate(0.5 0.5)"/><path class="cls-1" d="M626.82,558.15c1-.56,1.67-.72,2.1-.45s.65.91.66,1.94l.1,36,5.28-3c1-.56,1.66-.73,2-.5s.56.87.56,2v2.66a5.2,5.2,0,0,1-.55,2.52,5.13,5.13,0,0,1-2,1.84L614.35,613c-1,.56-1.66.72-2,.49s-.58-.85-.58-1.86V609a5.09,5.09,0,0,1,.57-2.57,5.18,5.18,0,0,1,2-1.87l5.24-3-.08-26.8-4.31,5.57a2.11,2.11,0,0,1-.79.72c-.41.24-.7.2-.92-.09l-2.87-3.39a1.38,1.38,0,0,1-.24-.77,2.35,2.35,0,0,1,.67-1.5l10.51-13.36a7.36,7.36,0,0,1,1-1.17,9.89,9.89,0,0,1,1.4-.93Z" transform="translate(0.5 0.5)"/><path class="cls-1" d="M670.37,537.37q4.77,2.67,4.79,13.89a55.29,55.29,0,0,1-2.51,17.53,39.71,39.71,0,0,1-6.73,12.78,34.34,34.34,0,0,1-9.37,8.1c-5.24,3-9.47,4.25-12.67,3.61-.38-.06-.57-.33-.57-.79a4.16,4.16,0,0,1,.38-1.48l2-5.33a2.58,2.58,0,0,1,.85-1.25,1.59,1.59,0,0,1,1-.18q3.54.19,8.22-2.52A19.77,19.77,0,0,0,663,575.1a23.33,23.33,0,0,0,3.21-9.62,27.5,27.5,0,0,1-4.56,5.23,38.37,38.37,0,0,1-6.14,4.31c-3.26,1.88-6.05,2.81-8.39,2.81a6.11,6.11,0,0,1-5.32-2.58,12.35,12.35,0,0,1-1.82-7.1,30.3,30.3,0,0,1,4.62-16.69A37.48,37.48,0,0,1,657.8,539.2Q665.6,534.7,670.37,537.37ZM663,561.45a15.09,15.09,0,0,0,2.08-7.87c0-3.39-.65-5.59-1.89-6.56s-3-.82-5.38.54a15.18,15.18,0,0,0-5.91,5.82,18,18,0,0,0-1.92,8.79q0,9.09,7.81,4.6a14.55,14.55,0,0,0,5.21-5.32" transform="translate(0.5 0.5)"/><path class="cls-1" d="M765.17,478.62q3.78-2.17,5.73-.45c1.29,1.15,1.94,3.6,2,7.3a21.61,21.61,0,0,1-1.91,9.55,14,14,0,0,1-5.7,6.12c-2.56,1.47-4.47,1.65-5.76.5s-2-3.6-2-7.32a21.58,21.58,0,0,1,1.91-9.53A14.09,14.09,0,0,1,765.17,478.62Z" transform="translate(0.5 0.5)"/><path class="cls-1" d="M908.42,371.82c18.09-10.45,32.82-2.07,32.88,18.73s-14.58,46.14-32.66,56.58L732.35,548.91c-18.09,10.44-32.82,2.07-32.88-18.74S714.05,484,732.13,473.6ZM776,496.2a29.14,29.14,0,0,0,3.69-14.66q0-8-3.76-10.33c-2.48-1.53-6.07-.94-10.73,1.75a28.21,28.21,0,0,0-10.77,10.66,29.16,29.16,0,0,0-3.67,14.62q0,8.08,3.74,10.37c2.48,1.53,6.09.93,10.79-1.78A28.11,28.11,0,0,0,776,496.2m94.88-53.11-.08-28.28c0-.74-.14-1.19-.4-1.36s-.77-.07-1.47.34l-3.1,1.79a3.78,3.78,0,0,0-1.45,1.37,3.67,3.67,0,0,0-.42,1.81l.05,17.78-11.68-12.13a1.31,1.31,0,0,0-.77-.39,2.43,2.43,0,0,0-1.06.41l-2.58,1.49a3.71,3.71,0,0,0-1.46,1.35,3.59,3.59,0,0,0-.44,1.81l.08,28.32c0,.71.16,1.13.45,1.29s.76.07,1.42-.32l3.12-1.8a3.59,3.59,0,0,0,1.45-1.34,3.55,3.55,0,0,0,.42-1.8l0-17.77,11.72,12.06a1.12,1.12,0,0,0,.77.39,2.13,2.13,0,0,0,1-.38l2.62-1.51a3.75,3.75,0,0,0,1.47-1.35,3.58,3.58,0,0,0,.39-1.78m-63,36.35-.08-28.27q0-1.11-.42-1.35c-.26-.2-.77-.07-1.45.33L802.8,452a3.75,3.75,0,0,0-1.43,1.35,3.68,3.68,0,0,0-.42,1.82l.06,17.77-11.69-12.12a1.26,1.26,0,0,0-.76-.39,2.55,2.55,0,0,0-1.07.4l-2.57,1.49a3.76,3.76,0,0,0-1.47,1.36,3.41,3.41,0,0,0-.44,1.8l.08,28.32c0,.72.14,1.14.45,1.29s.76.07,1.43-.31l3.11-1.8a3.68,3.68,0,0,0,1.45-1.35,3.49,3.49,0,0,0,.42-1.79L789.9,472l11.7,12.07a1.25,1.25,0,0,0,.79.38,2.2,2.2,0,0,0,1-.37l2.62-1.51a3.68,3.68,0,0,0,1.45-1.35,3.39,3.39,0,0,0,.41-1.79m88-77.43v-1.76c0-.74-.13-1.18-.37-1.34s-.7-.06-1.37.33l-17.24,9.95a3.73,3.73,0,0,0-1.42,1.36,3.67,3.67,0,0,0-.42,1.81l.08,28.27c0,.72.14,1.15.42,1.31s.77.07,1.43-.32l17.21-9.93a3.34,3.34,0,0,0,1.36-1.25,3.66,3.66,0,0,0,.36-1.76V427c0-.74-.12-1.18-.36-1.36s-.71-.08-1.37.3l-12.21,7,0-7.58,8.55-4.93a3.57,3.57,0,0,0,1.36-1.26,3.68,3.68,0,0,0,.38-1.79v-1.69c0-.71-.13-1.18-.39-1.32s-.71,0-1.37.35l-8.55,4.93,0-7.53,12.25-7.08a3.48,3.48,0,0,0,1.37-1.27,3.72,3.72,0,0,0,.35-1.78M832.4,465.33v-1.71c0-.74-.12-1.18-.36-1.37s-.71-.07-1.37.31L819,469.32l-.07-24.55c0-.74-.14-1.19-.43-1.35s-.76-.07-1.45.33l-3.12,1.8a3.64,3.64,0,0,0-1.42,1.35,3.72,3.72,0,0,0-.44,1.83L812.1,477c0,.72.16,1.13.45,1.29s.76.07,1.43-.31l16.69-9.64a3.45,3.45,0,0,0,1.37-1.25,3.66,3.66,0,0,0,.36-1.76m9.43-5.5-.08-28.27q0-1.11-.42-1.35c-.29-.18-.77-.07-1.45.33l-3.12,1.8a3.63,3.63,0,0,0-1.43,1.36,3.71,3.71,0,0,0-.44,1.82L835,463.8c0,.71.17,1.13.45,1.29s.77.07,1.43-.32L840,463a3.73,3.73,0,0,0,1.45-1.34,3.45,3.45,0,0,0,.41-1.8" transform="translate(0.5 0.5)"/></g></svg>